<svg width="210" height="183" viewBox="0 0 210 183" fill="none" xmlns="http://www.w3.org/2000/svg">
<path d="M193.517 94.6031C181.172 86.9852 195.989 65.0518 185.898 50.3373C177.062 37.4581 159.231 44.8207 122.585 31.6543C91.0101 20.3125 91.3291 10.205 74.5238 9.54532C44.22 8.33773 10.5934 39.868 2.18807 73.9145C-4.32991 100.295 3.93186 129.565 24.0759 149.381C70.4461 195.04 171.118 182.065 197.924 144.753C207.526 131.373 214.538 105.253 204.538 97.9864C200.88 95.3212 197.834 97.2683 193.517 94.6031Z" fill="#FFEBE3"/>
<path d="M103.19 10.7369C103.323 14.0404 108.092 16.9823 119.554 20.7859C128.741 23.8288 148.391 30.3615 150.32 26.9675C151.947 24.1214 140.219 15.5513 129.374 10.9284C122.276 7.90143 108.331 3.48071 104.285 7.83759C103.563 8.62852 103.172 9.66593 103.19 10.7369Z" fill="#FFEBE3"/>
<path d="M121.732 84.6284L103.107 74.9571C102.873 74.8363 102.613 74.7732 102.349 74.7732C102.085 74.7732 101.824 74.8363 101.59 74.9571L82.9651 84.6284C82.6915 84.774 82.382 84.8405 82.0721 84.8202C81.7621 84.7999 81.4642 84.6936 81.2124 84.5136C80.9607 84.3337 80.7654 84.0872 80.6489 83.8025C80.5323 83.5179 80.4993 83.2065 80.5535 82.9041L84.0571 62.392C84.1076 62.1219 84.0898 61.8436 84.0051 61.582C83.9204 61.3204 83.7715 61.0835 83.5717 60.8926L68.4956 46.3783C68.2754 46.1631 68.1202 45.8915 68.0472 45.5941C67.9742 45.2966 67.9864 44.9849 68.0825 44.6939C68.1785 44.4029 68.3545 44.1441 68.5909 43.9464C68.8272 43.7486 69.1146 43.6198 69.4208 43.5744L90.2453 40.5755C90.5141 40.5403 90.7698 40.4396 90.9895 40.2826C91.2092 40.1256 91.386 39.9171 91.5042 39.6759L100.817 21.0231C100.945 20.7308 101.157 20.4819 101.426 20.307C101.696 20.1322 102.011 20.0391 102.334 20.0391C102.656 20.0391 102.971 20.1322 103.241 20.307C103.51 20.4819 103.722 20.7308 103.85 21.0231L113.163 39.6759C113.281 39.9171 113.458 40.1256 113.678 40.2826C113.897 40.4396 114.153 40.5403 114.422 40.5755L135.246 43.5744C135.553 43.6198 135.84 43.7486 136.076 43.9464C136.313 44.1441 136.489 44.4029 136.585 44.6939C136.681 44.9849 136.693 45.2966 136.62 45.5941C136.547 45.8915 136.392 46.1631 136.172 46.3783L121.095 60.8926C120.897 61.0842 120.75 61.3217 120.668 61.5835C120.586 61.8453 120.571 62.1232 120.625 62.392L124.144 82.979C124.182 83.2756 124.136 83.5767 124.013 83.8496C123.89 84.1225 123.693 84.3568 123.444 84.5268C123.196 84.6969 122.904 84.7963 122.603 84.8142C122.301 84.8321 122 84.7679 121.732 84.6284Z" fill="#F0CF56"/>
<path d="M152.247 156.625H61.2403V182.569H152.247V156.625Z" fill="#A29BFE"/>
<path d="M61.2403 182.571L51.0061 180.683V154.738L61.2403 156.627V182.571Z" fill="#827CCB"/>
<path d="M142.008 154.738H51.0061L61.2402 156.627H152.242L142.008 154.738Z" fill="#F0CF56"/>
<path d="M135.192 123.52H74.8451V149.464H135.192V123.52Z" fill="#A29BFE"/>
<path d="M74.8451 149.463L68.0559 147.575V121.625L74.8451 123.519V149.463Z" fill="#827CCB"/>
<path d="M128.403 121.625H68.0559L74.8451 123.519H135.192L128.403 121.625Z" fill="#F0CF56"/>
<path d="M120.997 92.1797H86.1691V118.124H120.997V92.1797Z" fill="#A29BFE"/>
<path d="M86.1691 118.13L82.2509 116.863V92.1797H86.1691V118.13Z" fill="#827CCB"/>
<path d="M102.621 66.6099C102.621 66.445 102.621 66.2511 102.621 66.0281C102.621 65.805 102.621 65.5723 102.621 65.3299C102.621 65.0875 102.621 64.8499 102.621 64.6172C102.63 64.3844 102.64 64.1711 102.65 63.9772V63.9917C102.66 63.5262 102.664 63.0462 102.664 62.5517C102.674 62.0475 102.679 61.519 102.679 60.9662C102.679 59.8996 102.664 58.7941 102.635 57.6499C102.616 56.5056 102.548 55.3178 102.432 54.0863C102.315 52.845 102.136 51.565 101.893 50.2463C101.651 48.9178 101.307 47.5408 100.861 46.1153L104.25 45.0099C104.744 46.5905 105.127 48.1081 105.399 49.5626C105.68 51.0075 105.884 52.3941 106.01 53.7226C106.146 55.0414 106.228 56.3069 106.257 57.519C106.286 58.7311 106.301 59.8947 106.301 61.0099C106.301 61.5626 106.296 62.0959 106.286 62.6099C106.286 63.1141 106.281 63.599 106.272 64.0644C106.262 64.2584 106.252 64.4717 106.243 64.7044C106.243 64.9275 106.243 65.1553 106.243 65.3881C106.243 65.6208 106.243 65.8438 106.243 66.0572C106.243 66.2705 106.243 66.4547 106.243 66.6099H102.621Z" fill="#272727"/>
</svg>
