<svg width="58" height="58" viewBox="0 0 58 58" fill="none" xmlns="http://www.w3.org/2000/svg">
<g id="Frame 1469">
<g id="Group">
<path id="Vector" d="M51 29C51 41.1506 41.1506 51 29 51C16.8494 51 7 41.1506 7 29C7 16.8494 16.8494 7 29 7C41.1506 7 51 16.8494 51 29Z" stroke="#6BAAEB" stroke-width="4" stroke-linejoin="round"/>
</g>
<path id="Union" fill-rule="evenodd" clip-rule="evenodd" d="M29 16C27.8954 16 27 16.8954 27 18V32C27 33.1046 27.8954 34 29 34C30.1046 34 31 33.1046 31 32V18C31 16.8954 30.1046 16 29 16ZM29 38C27.8954 38 27 38.8954 27 40C27 41.1046 27.8954 42 29 42C30.1046 42 31 41.1046 31 40C31 38.8954 30.1046 38 29 38Z" fill="#6BAAEB"/>
</g>
</svg>
