<svg width="48" height="48" viewBox="0 0 48 48" fill="none" xmlns="http://www.w3.org/2000/svg">
<g id="tabler:message-2">
<path id="Vector" d="M13.409 38.6394C13.0343 38.2675 12.5279 38.0588 12 38.0588H8C6.40396 38.0588 4.87623 37.4293 3.75213 36.3135C2.62853 35.1981 2 33.6886 2 32.1176V10.9412C2 9.37026 2.62853 7.86068 3.75213 6.74534C4.87623 5.6295 6.40396 5 8 5H40C41.596 5 43.1238 5.6295 44.2479 6.74534C45.3715 7.86068 46 9.37026 46 10.9412V32.1176C46 33.6886 45.3715 35.1981 44.2479 36.3135C43.1238 37.4293 41.596 38.0588 40 38.0588H28C27.4721 38.0588 26.9657 38.2675 26.591 38.6394L21.409 43.7833C20.6291 44.5574 19.3708 44.5574 18.591 43.7833L13.409 38.6394Z" stroke="#6BAAEB" stroke-width="4" stroke-linecap="round" stroke-linejoin="round"/>
<rect id="Rectangle 182" x="12" y="28" width="4" height="20" rx="2" transform="rotate(-90 12 28)" fill="#6BAAEB"/>
<rect id="Rectangle 183" x="12" y="18" width="4" height="24" rx="2" transform="rotate(-90 12 18)" fill="#6BAAEB"/>
</g>
</svg>
