<svg width="88" height="88" viewBox="0 0 88 88" fill="none" xmlns="http://www.w3.org/2000/svg">
<path d="M82.39 0C83.8779 0 85.3048 0.593299 86.3569 1.64938C87.4089 2.70546 88 4.13781 88 5.63133V24.4024C88 25.8959 87.4089 27.3283 86.3569 28.3844C85.3048 29.4404 83.8779 30.0337 82.39 30.0337H60.5727L54.34 34.7265C52.7991 35.8866 50.6 34.7828 50.6 32.8494V5.63133C50.6 4.13781 51.1911 2.70546 52.2431 1.64938C53.2952 0.593299 54.7221 0 56.21 0H82.39ZM82.39 3.75422H56.21C55.714 3.75422 55.2384 3.95198 54.8877 4.30401C54.537 4.65604 54.34 5.13349 54.34 5.63133V30.0337L58.3287 27.0304C58.9761 26.543 59.7635 26.2795 60.5727 26.2795H82.39C82.886 26.2795 83.3616 26.0818 83.7123 25.7297C84.063 25.3777 84.26 24.9003 84.26 24.4024V5.63133C84.26 5.13349 84.063 4.65604 83.7123 4.30401C83.3616 3.95198 82.886 3.75422 82.39 3.75422ZM67.43 16.894C67.9066 16.8945 68.3651 17.0777 68.7116 17.4061C69.0582 17.7346 69.2668 18.1835 69.2947 18.6611C69.3226 19.1387 69.1678 19.609 68.8619 19.9759C68.556 20.3428 68.1221 20.5785 67.6488 20.6351L67.43 20.6482H61.82C61.3434 20.6477 60.8849 20.4645 60.5384 20.136C60.1918 19.8076 59.9832 19.3587 59.9553 18.8811C59.9274 18.4035 60.0822 17.9332 60.3881 17.5663C60.694 17.1994 61.1279 16.9636 61.6012 16.9071L61.82 16.894H67.43ZM76.78 9.38554C77.276 9.38554 77.7516 9.58331 78.1023 9.93534C78.453 10.2874 78.65 10.7648 78.65 11.2627C78.65 11.7605 78.453 12.2379 78.1023 12.59C77.7516 12.942 77.276 13.1398 76.78 13.1398H61.82C61.324 13.1398 60.8484 12.942 60.4977 12.59C60.147 12.2379 59.95 11.7605 59.95 11.2627C59.95 10.7648 60.147 10.2874 60.4977 9.93534C60.8484 9.58331 61.324 9.38554 61.82 9.38554H76.78Z" fill="#272727"/>
<path fill-rule="evenodd" clip-rule="evenodd" d="M45.1 31.9C45.1 41.0127 37.7127 48.4 28.6 48.4C19.4873 48.4 12.1 41.0127 12.1 31.9C12.1 22.7873 19.4873 15.4 28.6 15.4C37.7127 15.4 45.1 22.7873 45.1 31.9ZM40.7 31.9C40.7 38.5826 35.2826 44 28.6 44C21.9174 44 16.5 38.5826 16.5 31.9C16.5 25.2174 21.9174 19.8 28.6 19.8C35.2826 19.8 40.7 25.2174 40.7 31.9Z" fill="#272727"/>
<path fill-rule="evenodd" clip-rule="evenodd" d="M0 74.8C0 62.6497 9.84974 52.8 22 52.8H35.2C47.3503 52.8 57.2 62.6497 57.2 74.8V79.2C57.2 84.0601 53.2601 88 48.4 88H8.8C3.93989 88 0 84.0601 0 79.2V74.8ZM4.4 74.8C4.4 65.0798 12.2798 57.2 22 57.2H35.2C44.9202 57.2 52.8 65.0798 52.8 74.8V79.2C52.8 81.6301 50.8301 83.6 48.4 83.6H8.8C6.36995 83.6 4.4 81.6301 4.4 79.2V74.8Z" fill="#272727"/>
</svg>
