<svg width="80" height="80" viewBox="0 0 80 80" fill="none" xmlns="http://www.w3.org/2000/svg">
<path d="M72.1317 19.0374C72.0726 18.8903 71.9823 18.7556 71.866 18.6412C70.7277 17.4644 68.634 16.6799 66.6596 16.6799C64.6851 16.6799 62.5915 17.4644 61.4532 18.6412C61.2366 18.8749 61.1278 19.1775 61.1501 19.4842C61.1724 19.791 61.3241 20.0774 61.5726 20.2824C61.8211 20.4874 62.1467 20.5946 62.4799 20.5812C62.8131 20.5677 63.1273 20.4345 63.3553 20.2102C64.0064 19.5395 65.4277 19.0334 66.6596 19.0334C67.8915 19.0334 69.3128 19.5395 69.9638 20.2102C70.0743 20.3295 70.2096 20.4271 70.3616 20.4975C70.5136 20.5679 70.6794 20.6096 70.8491 20.62C71.0188 20.6305 71.1891 20.6097 71.35 20.5586C71.5108 20.5076 71.659 20.4274 71.7858 20.3228C71.9126 20.2183 72.0154 20.0914 72.0882 19.9497C72.161 19.8079 72.2024 19.6542 72.2099 19.4976C72.2173 19.3409 72.1908 19.1844 72.1317 19.0374Z" fill="#272727"/>
<path d="M55.0424 20.4975C54.8904 20.4271 54.7552 20.3295 54.6447 20.2102C53.9936 19.5395 52.5723 19.0334 51.3404 19.0334C50.1085 19.0334 48.6872 19.5395 48.0362 20.2102C47.9257 20.3295 47.7904 20.4271 47.6384 20.4975C47.4864 20.5679 47.3206 20.6096 47.1509 20.62C46.9812 20.6305 46.8109 20.6097 46.65 20.5586C46.4892 20.5076 46.341 20.4274 46.2142 20.3228C46.0874 20.2183 45.9846 20.0914 45.9118 19.9497C45.839 19.8079 45.7976 19.6542 45.7901 19.4976C45.7827 19.3409 45.8092 19.1844 45.8683 19.0374C45.9274 18.8903 46.0177 18.7556 46.134 18.6412C47.2723 17.4644 49.366 16.6799 51.3404 16.6799C53.3149 16.6799 55.4085 17.4644 56.5468 18.6412C56.6631 18.7556 56.7535 18.8903 56.8126 19.0374C56.8716 19.1844 56.8982 19.3409 56.8907 19.4976C56.8833 19.6542 56.8419 19.8079 56.7691 19.9497C56.6962 20.0914 56.5934 20.2183 56.4666 20.3228C56.3399 20.4274 56.1917 20.5076 56.0308 20.5586C55.87 20.6097 55.6997 20.6305 55.5299 20.62C55.3602 20.6096 55.1945 20.5679 55.0424 20.4975Z" fill="#272727"/>
<path d="M66.7057 26.1504C66.8652 26.1981 67.0129 26.2742 67.1404 26.3746C67.268 26.4749 67.3729 26.5974 67.4491 26.7351C67.5253 26.8727 67.5713 27.0229 67.5846 27.177C67.5978 27.3311 67.578 27.4861 67.5262 27.6331C67.4745 27.7801 67.3918 27.9163 67.283 28.0338C66.2664 29.1464 64.9984 30.0407 63.5676 30.6542C62.1369 31.2677 60.578 31.5855 59 31.5855C57.422 31.5855 55.8631 31.2677 54.4324 30.6542C53.0016 30.0407 51.7336 29.1464 50.717 28.0338C50.6082 27.9163 50.5256 27.7801 50.4738 27.6331C50.4221 27.4861 50.4023 27.3311 50.4155 27.177C50.4287 27.0229 50.4748 26.8728 50.551 26.7351C50.6272 26.5974 50.732 26.4749 50.8596 26.3746C50.9871 26.2743 51.1349 26.1981 51.2943 26.1504C51.4538 26.1027 51.622 26.0844 51.7891 26.0967C51.9562 26.1089 52.1191 26.1513 52.2685 26.2215C52.4179 26.2918 52.5507 26.3884 52.6596 26.506C53.4362 27.3598 54.4064 28.0464 55.5018 28.5174C56.5972 28.9885 57.7913 29.2326 59 29.2326C60.2087 29.2326 61.4028 28.9885 62.4982 28.5174C63.5936 28.0464 64.5638 27.3598 65.3404 26.506C65.4492 26.3884 65.5821 26.2917 65.7315 26.2215C65.8808 26.1512 66.0437 26.1088 66.2109 26.0966C66.378 26.0844 66.5462 26.1026 66.7057 26.1504Z" fill="#272727"/>
<path fill-rule="evenodd" clip-rule="evenodd" d="M79 14.6735V3.73532C78.9982 3.28997 78.8788 2.85172 78.6523 2.45837C78.4258 2.06501 78.0988 1.72834 77.6997 1.4774C77.3006 1.22646 76.8412 1.06878 76.3613 1.01794C75.8813 0.967114 75.3951 1.02466 74.9447 1.18563C71.9255 2.2565 65.8383 4.06874 59 4.06874C52.1617 4.06874 46.0745 2.2565 43.0553 1.18563C42.6049 1.02466 42.1187 0.967114 41.6387 1.01794C41.1588 1.06878 40.6994 1.22646 40.3003 1.4774C39.9011 1.72834 39.5742 2.06501 39.3477 2.45837C39.1212 2.85172 39.0018 3.28997 39 3.73532V14.6754C39 21.6282 41.0277 28.1809 44.7085 33.1234C48.4894 38.2032 53.566 41 59 41C64.434 41 69.5106 38.2032 73.2915 33.1215C76.9723 28.179 79 21.6263 79 14.6735ZM76.3982 3.5513C76.4305 3.60806 76.4472 3.67124 76.4468 3.73532V14.6754C76.4468 27.8926 68.6191 38.6464 59 38.6464C49.3809 38.6464 41.5532 27.8926 41.5532 14.6715V3.73532C41.5532 3.67157 41.5701 3.60878 41.6023 3.5524C41.6346 3.49601 41.6812 3.44772 41.7383 3.4117C41.7954 3.37593 41.861 3.35349 41.9296 3.34631C41.9982 3.33913 42.0676 3.34744 42.1319 3.37051C45.317 4.51983 51.7447 6.4223 59 6.4223C66.2553 6.4223 72.683 4.51983 75.8681 3.36855C75.9321 3.34426 76.0018 3.3353 76.0706 3.3425C76.1395 3.3497 76.2052 3.37283 76.2617 3.40974C76.3191 3.44594 76.3659 3.49455 76.3982 3.5513Z" fill="#272727"/>
<path d="M26.8186 69.3854C26.9578 69.2993 27.0773 69.1888 27.1702 69.0601C27.2634 68.9313 27.328 68.7868 27.3605 68.6349C27.3929 68.4829 27.3925 68.3266 27.3593 68.1749C27.3261 68.0231 27.2607 67.8788 27.167 67.7504C27.0732 67.622 26.9528 67.5118 26.8128 67.4264C25.083 66.3673 23.434 65.6612 21 65.6612C18.566 65.6612 16.917 66.3673 15.1872 67.4264C15.0475 67.5119 14.9275 67.6219 14.8339 67.7502C14.7403 67.8785 14.6751 68.0225 14.6419 68.174C14.6087 68.3255 14.6082 68.4816 14.6404 68.6333C14.6727 68.785 14.737 68.9294 14.8298 69.0582C14.9226 69.1869 15.0419 69.2976 15.1811 69.3839C15.3203 69.4701 15.4765 69.5303 15.6409 69.5609C15.8052 69.5915 15.9746 69.5919 16.1391 69.5622C16.3037 69.5325 16.4603 69.4732 16.6 69.3877C18.0213 68.5168 19.1936 68.0147 21 68.0147C22.8064 68.0147 23.9809 68.5188 25.4 69.3877C25.5396 69.4733 25.6961 69.5328 25.8606 69.5627C26.025 69.5926 26.1943 69.5923 26.3587 69.5619C26.5231 69.5315 26.6794 69.4715 26.8186 69.3854Z" fill="#272727"/>
<path d="M28.6596 56.2489C29.8915 56.2489 31.3128 55.7429 31.9638 55.0721C32.0743 54.9529 32.2096 54.8552 32.3616 54.7848C32.5136 54.7145 32.6794 54.6728 32.8491 54.6623C33.0188 54.6518 33.1891 54.6727 33.35 54.7237C33.5109 54.7748 33.659 54.8549 33.7858 54.9595C33.9126 55.0641 34.0154 55.191 34.0882 55.3327C34.161 55.4744 34.2024 55.6281 34.2099 55.7848C34.2173 55.9415 34.1908 56.0979 34.1317 56.245C34.0726 56.392 33.9823 56.5267 33.866 56.6412C32.7277 57.818 30.634 58.6025 28.6596 58.6025C26.6851 58.6025 24.5915 57.818 23.4532 56.6412C23.3369 56.5267 23.2465 56.392 23.1874 56.245C23.1284 56.0979 23.1018 55.9415 23.1093 55.7848C23.1168 55.6281 23.1581 55.4744 23.2309 55.3327C23.3038 55.191 23.4066 55.0641 23.5334 54.9595C23.6601 54.8549 23.8083 54.7748 23.9692 54.7237C24.13 54.6727 24.3003 54.6518 24.4701 54.6623C24.6398 54.6728 24.8055 54.7145 24.9576 54.7848C25.1096 54.8552 25.2448 54.9529 25.3553 55.0721C26.0064 55.7429 27.4277 56.2489 28.6596 56.2489Z" fill="#272727"/>
<path d="M18.8126 56.245C18.7535 56.392 18.6631 56.5267 18.5468 56.6412C17.4085 57.818 15.3149 58.6025 13.3404 58.6025C11.366 58.6025 9.27234 57.818 8.13404 56.6412C7.91745 56.4074 7.80867 56.1048 7.83098 55.7981C7.85329 55.4914 8.00491 55.2049 8.25342 54.9999C8.50194 54.7949 8.8276 54.6877 9.16076 54.7012C9.49392 54.7147 9.80813 54.8478 10.0362 55.0721C10.6872 55.7429 12.1085 56.2489 13.3404 56.2489C14.5723 56.2489 15.9936 55.7429 16.6447 55.0721C16.7552 54.9529 16.8904 54.8552 17.0424 54.7848C17.1945 54.7145 17.3602 54.6728 17.5299 54.6623C17.6997 54.6518 17.87 54.6727 18.0308 54.7237C18.1917 54.7748 18.3399 54.8549 18.4666 54.9595C18.5934 55.0641 18.6962 55.191 18.7691 55.3327C18.8419 55.4744 18.8832 55.6281 18.8907 55.7848C18.8982 55.9415 18.8716 56.0979 18.8126 56.245Z" fill="#272727"/>
<path fill-rule="evenodd" clip-rule="evenodd" d="M41 52.6735V41.7353C40.9982 41.29 40.8788 40.8517 40.6523 40.4583C40.4258 40.065 40.0989 39.7283 39.6997 39.4774C39.3006 39.2264 38.8413 39.0688 38.3613 39.0179C37.8813 38.9671 37.3951 39.0246 36.9447 39.1856C33.9255 40.2565 27.8383 42.0687 21 42.0687C14.1617 42.0687 8.07447 40.2565 5.05532 39.1856C4.60486 39.0246 4.11868 38.9671 3.63872 39.0179C3.15875 39.0688 2.6994 39.2264 2.30028 39.4774C1.90115 39.7283 1.57423 40.065 1.34771 40.4583C1.12118 40.8517 1.00185 41.29 1 41.7353V52.6754C1 59.6282 3.02766 66.1809 6.70851 71.1234C10.4894 76.2032 15.566 79 21 79C26.434 79 31.5106 76.2032 35.2915 71.1214C38.9723 66.179 41 59.6263 41 52.6735ZM38.3981 41.5522C38.4302 41.6087 38.447 41.6715 38.4468 41.7353V52.6754C38.4468 65.8926 30.6192 76.6464 21 76.6464C11.3809 76.6464 3.55319 65.8926 3.55319 52.6715V41.7353C3.5532 41.6716 3.57006 41.6088 3.60231 41.5524C3.63456 41.496 3.68124 41.4477 3.7383 41.4117C3.79537 41.3759 3.86102 41.3535 3.92959 41.3463C3.99816 41.3391 4.0676 41.3474 4.13192 41.3705C7.31702 42.5198 13.7447 44.4223 21 44.4223C28.2553 44.4223 34.683 42.5198 37.8681 41.3685C37.9326 41.3456 38.0023 41.3375 38.071 41.3449C38.1397 41.3524 38.2054 41.3751 38.2624 41.4113C38.3194 41.4474 38.3659 41.4958 38.3981 41.5522Z" fill="#272727"/>
<path d="M72.1317 19.0374C72.0726 18.8903 71.9823 18.7556 71.866 18.6412C70.7277 17.4644 68.634 16.6799 66.6596 16.6799C64.6851 16.6799 62.5915 17.4644 61.4532 18.6412C61.2366 18.8749 61.1278 19.1775 61.1501 19.4842C61.1724 19.791 61.3241 20.0774 61.5726 20.2824C61.8211 20.4874 62.1467 20.5946 62.4799 20.5812C62.8131 20.5677 63.1273 20.4345 63.3553 20.2102C64.0064 19.5395 65.4277 19.0334 66.6596 19.0334C67.8915 19.0334 69.3128 19.5395 69.9638 20.2102C70.0743 20.3295 70.2096 20.4271 70.3616 20.4975C70.5136 20.5679 70.6794 20.6096 70.8491 20.62C71.0188 20.6305 71.1891 20.6097 71.35 20.5586C71.5108 20.5076 71.659 20.4274 71.7858 20.3228C71.9126 20.2183 72.0154 20.0914 72.0882 19.9497C72.161 19.8079 72.2024 19.6542 72.2099 19.4976C72.2173 19.3409 72.1908 19.1844 72.1317 19.0374Z" stroke="#272727" stroke-width="1.5"/>
<path d="M55.0424 20.4975C54.8904 20.4271 54.7552 20.3295 54.6447 20.2102C53.9936 19.5395 52.5723 19.0334 51.3404 19.0334C50.1085 19.0334 48.6872 19.5395 48.0362 20.2102C47.9257 20.3295 47.7904 20.4271 47.6384 20.4975C47.4864 20.5679 47.3206 20.6096 47.1509 20.62C46.9812 20.6305 46.8109 20.6097 46.65 20.5586C46.4892 20.5076 46.341 20.4274 46.2142 20.3228C46.0874 20.2183 45.9846 20.0914 45.9118 19.9497C45.839 19.8079 45.7976 19.6542 45.7901 19.4976C45.7827 19.3409 45.8092 19.1844 45.8683 19.0374C45.9274 18.8903 46.0177 18.7556 46.134 18.6412C47.2723 17.4644 49.366 16.6799 51.3404 16.6799C53.3149 16.6799 55.4085 17.4644 56.5468 18.6412C56.6631 18.7556 56.7535 18.8903 56.8126 19.0374C56.8716 19.1844 56.8982 19.3409 56.8907 19.4976C56.8833 19.6542 56.8419 19.8079 56.7691 19.9497C56.6962 20.0914 56.5934 20.2183 56.4666 20.3228C56.3399 20.4274 56.1917 20.5076 56.0308 20.5586C55.87 20.6097 55.6997 20.6305 55.5299 20.62C55.3602 20.6096 55.1945 20.5679 55.0424 20.4975Z" stroke="#272727" stroke-width="1.5"/>
<path d="M66.7057 26.1504C66.8652 26.1981 67.0129 26.2742 67.1404 26.3746C67.268 26.4749 67.3729 26.5974 67.4491 26.7351C67.5253 26.8727 67.5713 27.0229 67.5846 27.177C67.5978 27.3311 67.578 27.4861 67.5262 27.6331C67.4745 27.7801 67.3918 27.9163 67.283 28.0338C66.2664 29.1464 64.9984 30.0407 63.5676 30.6542C62.1369 31.2677 60.578 31.5855 59 31.5855C57.422 31.5855 55.8631 31.2677 54.4324 30.6542C53.0016 30.0407 51.7336 29.1464 50.717 28.0338C50.6082 27.9163 50.5256 27.7801 50.4738 27.6331C50.4221 27.4861 50.4023 27.3311 50.4155 27.177C50.4287 27.0229 50.4748 26.8728 50.551 26.7351C50.6272 26.5974 50.732 26.4749 50.8596 26.3746C50.9871 26.2743 51.1349 26.1981 51.2943 26.1504C51.4538 26.1027 51.622 26.0844 51.7891 26.0967C51.9562 26.1089 52.1191 26.1513 52.2685 26.2215C52.4179 26.2918 52.5507 26.3884 52.6596 26.506C53.4362 27.3598 54.4064 28.0464 55.5018 28.5174C56.5972 28.9885 57.7913 29.2326 59 29.2326C60.2087 29.2326 61.4028 28.9885 62.4982 28.5174C63.5936 28.0464 64.5638 27.3598 65.3404 26.506C65.4492 26.3884 65.5821 26.2917 65.7315 26.2215C65.8808 26.1512 66.0437 26.1088 66.2109 26.0966C66.378 26.0844 66.5462 26.1026 66.7057 26.1504Z" stroke="#272727" stroke-width="1.5"/>
<path fill-rule="evenodd" clip-rule="evenodd" d="M79 14.6735V3.73532C78.9982 3.28997 78.8788 2.85172 78.6523 2.45837C78.4258 2.06501 78.0988 1.72834 77.6997 1.4774C77.3006 1.22646 76.8412 1.06878 76.3613 1.01794C75.8813 0.967114 75.3951 1.02466 74.9447 1.18563C71.9255 2.2565 65.8383 4.06874 59 4.06874C52.1617 4.06874 46.0745 2.2565 43.0553 1.18563C42.6049 1.02466 42.1187 0.967114 41.6387 1.01794C41.1588 1.06878 40.6994 1.22646 40.3003 1.4774C39.9011 1.72834 39.5742 2.06501 39.3477 2.45837C39.1212 2.85172 39.0018 3.28997 39 3.73532V14.6754C39 21.6282 41.0277 28.1809 44.7085 33.1234C48.4894 38.2032 53.566 41 59 41C64.434 41 69.5106 38.2032 73.2915 33.1215C76.9723 28.179 79 21.6263 79 14.6735ZM76.3982 3.5513C76.4305 3.60806 76.4472 3.67124 76.4468 3.73532V14.6754C76.4468 27.8926 68.6191 38.6464 59 38.6464C49.3809 38.6464 41.5532 27.8926 41.5532 14.6715V3.73532C41.5532 3.67157 41.5701 3.60878 41.6023 3.5524C41.6346 3.49601 41.6812 3.44772 41.7383 3.4117C41.7954 3.37593 41.861 3.35349 41.9296 3.34631C41.9982 3.33913 42.0676 3.34744 42.1319 3.37051C45.317 4.51983 51.7447 6.4223 59 6.4223C66.2553 6.4223 72.683 4.51983 75.8681 3.36855C75.9321 3.34426 76.0018 3.3353 76.0706 3.3425C76.1395 3.3497 76.2052 3.37283 76.2617 3.40974C76.3191 3.44594 76.3659 3.49455 76.3982 3.5513Z" stroke="#272727" stroke-width="1.5"/>
<path d="M26.8186 69.3854C26.9578 69.2993 27.0773 69.1888 27.1702 69.0601C27.2634 68.9313 27.328 68.7868 27.3605 68.6349C27.3929 68.4829 27.3925 68.3266 27.3593 68.1749C27.3261 68.0231 27.2607 67.8788 27.167 67.7504C27.0732 67.622 26.9528 67.5118 26.8128 67.4264C25.083 66.3673 23.434 65.6612 21 65.6612C18.566 65.6612 16.917 66.3673 15.1872 67.4264C15.0475 67.5119 14.9275 67.6219 14.8339 67.7502C14.7403 67.8785 14.6751 68.0225 14.6419 68.174C14.6087 68.3255 14.6082 68.4816 14.6404 68.6333C14.6727 68.785 14.737 68.9294 14.8298 69.0582C14.9226 69.1869 15.0419 69.2976 15.1811 69.3839C15.3203 69.4701 15.4765 69.5303 15.6409 69.5609C15.8052 69.5915 15.9746 69.5919 16.1391 69.5622C16.3037 69.5325 16.4603 69.4732 16.6 69.3877C18.0213 68.5168 19.1936 68.0147 21 68.0147C22.8064 68.0147 23.9809 68.5188 25.4 69.3877C25.5396 69.4733 25.6961 69.5328 25.8606 69.5627C26.025 69.5926 26.1943 69.5923 26.3587 69.5619C26.5231 69.5315 26.6794 69.4715 26.8186 69.3854Z" stroke="#272727" stroke-width="1.5"/>
<path d="M28.6596 56.2489C29.8915 56.2489 31.3128 55.7429 31.9638 55.0721C32.0743 54.9529 32.2096 54.8552 32.3616 54.7848C32.5136 54.7145 32.6794 54.6728 32.8491 54.6623C33.0188 54.6518 33.1891 54.6727 33.35 54.7237C33.5109 54.7748 33.659 54.8549 33.7858 54.9595C33.9126 55.0641 34.0154 55.191 34.0882 55.3327C34.161 55.4744 34.2024 55.6281 34.2099 55.7848C34.2173 55.9415 34.1908 56.0979 34.1317 56.245C34.0726 56.392 33.9823 56.5267 33.866 56.6412C32.7277 57.818 30.634 58.6025 28.6596 58.6025C26.6851 58.6025 24.5915 57.818 23.4532 56.6412C23.3369 56.5267 23.2465 56.392 23.1874 56.245C23.1284 56.0979 23.1018 55.9415 23.1093 55.7848C23.1168 55.6281 23.1581 55.4744 23.2309 55.3327C23.3038 55.191 23.4066 55.0641 23.5334 54.9595C23.6601 54.8549 23.8083 54.7748 23.9692 54.7237C24.13 54.6727 24.3003 54.6518 24.4701 54.6623C24.6398 54.6728 24.8055 54.7145 24.9576 54.7848C25.1096 54.8552 25.2448 54.9529 25.3553 55.0721C26.0064 55.7429 27.4277 56.2489 28.6596 56.2489Z" stroke="#272727" stroke-width="1.5"/>
<path d="M18.8126 56.245C18.7535 56.392 18.6631 56.5267 18.5468 56.6412C17.4085 57.818 15.3149 58.6025 13.3404 58.6025C11.366 58.6025 9.27234 57.818 8.13404 56.6412C7.91745 56.4074 7.80867 56.1048 7.83098 55.7981C7.85329 55.4914 8.00491 55.2049 8.25342 54.9999C8.50194 54.7949 8.8276 54.6877 9.16076 54.7012C9.49392 54.7147 9.80813 54.8478 10.0362 55.0721C10.6872 55.7429 12.1085 56.2489 13.3404 56.2489C14.5723 56.2489 15.9936 55.7429 16.6447 55.0721C16.7552 54.9529 16.8904 54.8552 17.0424 54.7848C17.1945 54.7145 17.3602 54.6728 17.5299 54.6623C17.6997 54.6518 17.87 54.6727 18.0308 54.7237C18.1917 54.7748 18.3399 54.8549 18.4666 54.9595C18.5934 55.0641 18.6962 55.191 18.7691 55.3327C18.8419 55.4744 18.8832 55.6281 18.8907 55.7848C18.8982 55.9415 18.8716 56.0979 18.8126 56.245Z" stroke="#272727" stroke-width="1.5"/>
<path fill-rule="evenodd" clip-rule="evenodd" d="M41 52.6735V41.7353C40.9982 41.29 40.8788 40.8517 40.6523 40.4583C40.4258 40.065 40.0989 39.7283 39.6997 39.4774C39.3006 39.2264 38.8413 39.0688 38.3613 39.0179C37.8813 38.9671 37.3951 39.0246 36.9447 39.1856C33.9255 40.2565 27.8383 42.0687 21 42.0687C14.1617 42.0687 8.07447 40.2565 5.05532 39.1856C4.60486 39.0246 4.11868 38.9671 3.63872 39.0179C3.15875 39.0688 2.6994 39.2264 2.30028 39.4774C1.90115 39.7283 1.57423 40.065 1.34771 40.4583C1.12118 40.8517 1.00185 41.29 1 41.7353V52.6754C1 59.6282 3.02766 66.1809 6.70851 71.1234C10.4894 76.2032 15.566 79 21 79C26.434 79 31.5106 76.2032 35.2915 71.1214C38.9723 66.179 41 59.6263 41 52.6735ZM38.3981 41.5522C38.4302 41.6087 38.447 41.6715 38.4468 41.7353V52.6754C38.4468 65.8926 30.6192 76.6464 21 76.6464C11.3809 76.6464 3.55319 65.8926 3.55319 52.6715V41.7353C3.5532 41.6716 3.57006 41.6088 3.60231 41.5524C3.63456 41.496 3.68124 41.4477 3.7383 41.4117C3.79537 41.3759 3.86102 41.3535 3.92959 41.3463C3.99816 41.3391 4.0676 41.3474 4.13192 41.3705C7.31702 42.5198 13.7447 44.4223 21 44.4223C28.2553 44.4223 34.683 42.5198 37.8681 41.3685C37.9326 41.3456 38.0023 41.3375 38.071 41.3449C38.1397 41.3524 38.2054 41.3751 38.2624 41.4113C38.3194 41.4474 38.3659 41.4958 38.3981 41.5522Z" stroke="#272727" stroke-width="1.5"/>
</svg>
