<svg width="74" height="80" viewBox="0 0 74 80" fill="none" xmlns="http://www.w3.org/2000/svg">
<path fill-rule="evenodd" clip-rule="evenodd" d="M61.0755 12.952C49.4084 1.6678 35.8039 3.43364 30.6504 5.60129L30.615 5.61618L30.5791 5.6297C9.77968 13.4529 9.77938 32.1076 9.77938 35.3384C9.77938 38.1531 9.39303 40.4582 9.16762 41.3626L9.13242 41.5038L9.07715 41.6384C7.8048 44.7377 4.97066 51.55 4.04539 53.4061C4.02445 53.4481 4.01282 53.4787 4.00647 53.4989C4.01104 53.5063 4.01703 53.5153 4.0248 53.5259C4.07386 53.5934 4.16452 53.6858 4.30081 53.7828C4.4156 53.8645 4.52958 53.9258 4.61487 53.9639C5.17818 54.1493 6.62214 54.5941 8.2658 55.0063C11.1289 55.7242 11.9143 58.2223 11.9837 59.5269L13.6306 69.9884L13.6362 70.0449C13.8022 71.7099 14.4858 72.5805 15.1451 73.0703C15.8747 73.6124 16.7127 73.7838 17.17 73.7838H28.0787C30.7146 73.3978 32.3717 72.0918 33.4271 70.6169C34.5412 69.0601 34.9897 67.2958 35.0604 66.2324C35.1337 65.1302 36.0865 64.2962 37.1886 64.3694C38.2908 64.4427 39.1248 65.3955 39.0516 66.4977C38.9381 68.2046 38.2818 70.7064 36.68 72.9447C35.0363 75.2418 32.4022 77.242 28.4829 77.7662L28.3509 77.7838H17.17C15.9701 77.7838 14.2671 77.4012 12.7595 76.2811C11.1929 75.1172 9.94978 73.2364 9.66202 70.5011L7.98891 59.8729V59.7165C7.98881 59.7139 7.9863 59.6494 7.95939 59.5482C7.93315 59.4495 7.89242 59.3489 7.83834 59.26C7.78612 59.1742 7.72482 59.1042 7.65196 59.0482C7.58244 58.9948 7.47327 58.9314 7.29292 58.8862C5.47239 58.4297 3.87639 57.9348 3.27847 57.7349L3.2226 57.7163L3.16793 57.6943C2.47798 57.4175 1.48596 56.8357 0.789937 55.8787C-8.88705e-05 54.7925 -0.351431 53.2604 0.465537 51.6216C1.29519 49.9573 3.98836 43.4984 5.31674 40.2656C5.47331 39.5622 5.77938 37.6796 5.77938 35.3384C5.77938 31.9219 5.77938 10.7052 29.1357 1.899C35.4179 -0.725586 50.7852 -2.5476 63.8355 10.0566C70.3568 16.0201 80.2812 32.7517 68.605 52.4265L68.5789 52.4704L68.5507 52.5129C68.0516 53.2637 67.2784 54.5806 66.638 56.0065C65.9706 57.4926 65.5707 58.8309 65.5707 59.7165V78C65.5707 79.1046 64.6753 80 63.5707 80C62.4661 80 61.5707 79.1046 61.5707 78V59.7165C61.5707 57.9426 62.2756 55.9566 62.9891 54.3678C63.7179 52.7451 64.5854 51.2584 65.1901 50.3429C75.5573 32.8265 66.7454 18.1231 61.1184 12.9923L61.0967 12.9724L61.0755 12.952ZM4.00008 53.5235L3.99984 53.5272C3.99965 53.5292 3.99942 53.5302 3.99931 53.5303C3.99932 53.5294 3.99947 53.5268 4.00008 53.5235Z" fill="#272727"/>
<path fill-rule="evenodd" clip-rule="evenodd" d="M26.2178 22.3839C25.2463 22.5392 24.1313 22.9206 23.1228 23.6017C21.5498 24.6641 20.2748 26.423 20.2748 29.2439C20.2748 32.0482 21.5361 33.7788 23.1477 34.9031C24.2613 35.68 25.5485 36.1626 26.6913 36.4246C26.9811 35.0469 27.6095 33.897 28.4781 32.9798C30.0345 31.3362 32.1213 30.6966 33.5751 30.5751C34.6759 30.4831 35.6428 31.3008 35.7348 32.4016C35.8268 33.5023 35.0091 34.4692 33.9083 34.5612C33.1526 34.6244 32.0908 34.9821 31.3824 35.7301C30.7808 36.3655 30.1822 37.5419 30.7193 39.8764L30.7383 39.9589L30.7503 40.0428C30.7707 40.1865 31.3528 42.1784 35.3248 42.2029L35.3482 42.2002L35.4287 42.1905C35.5003 42.1818 35.5971 42.17 35.6857 42.1599C35.9765 42.1266 36.3748 42.0866 36.8404 42.0665C37.7555 42.027 39.0038 42.0603 40.2823 42.4141C41.576 42.772 42.9764 43.4814 44.0412 44.8384C45.1116 46.2026 45.6847 48.0196 45.6847 50.2977V55.2841C45.6847 56.3886 44.7893 57.2841 43.6847 57.2841C42.5802 57.2841 41.6847 56.3886 41.6847 55.2841V50.2977C41.6847 48.6973 41.2912 47.8134 40.8943 47.3077C40.4918 46.7947 39.9244 46.4653 39.2156 46.2692C38.4917 46.0689 37.703 46.033 37.0128 46.0628C36.6757 46.0773 36.3792 46.1066 36.1413 46.1339C36.0604 46.1431 36.0009 46.1504 35.9414 46.1576L35.8061 46.1739C35.7458 46.1812 35.5646 46.2031 35.3989 46.2031C29.7878 46.2031 27.2038 43.1273 26.8045 40.7C26.7904 40.637 26.7768 40.5742 26.7637 40.5116C24.9744 40.2239 22.785 39.5273 20.8591 38.1837C18.3278 36.4178 16.2748 33.5314 16.2748 29.2439C16.2748 24.9729 18.3141 22.0225 20.8841 20.2869C22.7259 19.043 24.8659 18.4031 26.7472 18.3122C27.5018 16.2265 28.8999 13.8248 31.1429 12.0717C34.1346 9.73335 38.3695 8.75645 43.8176 10.7435L43.8475 10.7544L43.877 10.7663C45.119 11.2646 47.3762 12.8145 49.2549 15.6627C51.3874 15.8565 54.0732 16.6043 56.2766 18.3779C58.7997 20.4089 60.4694 23.612 60.1681 28.1797C62.3085 29.7155 64.7556 32.915 63.8952 37.8341C63.8663 38.0623 63.8113 38.2432 63.7906 38.3114L63.7884 38.3185C63.7394 38.4804 63.6765 38.6516 63.6062 38.8227C63.4644 39.1681 63.2641 39.5826 63.0052 40.0293C62.4913 40.9158 61.6986 42.0117 60.5838 42.9578C59.4587 43.9127 57.9753 44.7381 56.1245 44.9902C54.265 45.2435 52.2029 44.8949 49.9692 43.7747C49.9395 43.7598 49.8949 43.74 49.8375 43.7146C49.4105 43.5251 48.2753 43.0214 47.2914 41.8785C46.4063 40.8502 45.6948 39.4126 45.2817 37.3776C43.5314 37.2796 41.129 36.5882 39.3592 34.3693C38.6705 33.5058 38.8121 32.2474 39.6757 31.5586C40.5392 30.8699 41.7976 31.0116 42.4863 31.8751C43.5686 33.232 45.1967 33.4469 45.9503 33.3858C47.6544 32.7038 48.2127 31.9464 48.4112 31.4915C48.6323 30.9846 48.5961 30.4183 48.4155 29.8746C48.0671 28.8264 48.6345 27.6943 49.6827 27.3459C50.7309 26.9976 51.863 27.5649 52.2113 28.6131C52.5831 29.7316 52.8231 31.3815 52.0775 33.0908C51.5382 34.3272 50.5693 35.3993 49.1408 36.2606C49.4435 37.987 49.9532 38.8394 50.3229 39.2688C50.6864 39.6911 50.9798 39.8284 51.4038 40.027C51.5134 40.0783 51.6318 40.1337 51.7623 40.1992C53.3954 41.0181 54.6476 41.1544 55.5846 41.0268C56.5302 40.898 57.3254 40.4768 57.9956 39.908C58.6761 39.3305 59.1953 38.6257 59.5445 38.0233C59.7172 37.7255 59.8362 37.4733 59.9059 37.3036C59.923 37.2619 59.9356 37.229 59.9443 37.205L59.9456 37.1978C60.3622 34.8999 59.6376 33.2856 58.7708 32.2745L58.732 32.3524C58.2392 33.3409 57.0383 33.7428 56.0498 33.25C55.0612 32.7572 54.6593 31.5563 55.1521 30.5678L56.1079 28.6505C56.5708 24.8316 55.2995 22.7263 53.7684 21.4939C52.0552 20.1148 49.7277 19.6089 48.1038 19.6089H46.9415L46.3661 18.5989C44.8271 15.8977 42.9145 14.703 42.4103 14.488C38.1573 12.9476 35.4059 13.8165 33.6062 15.2232C31.7443 16.6785 30.6466 18.9173 30.2178 20.6148V23.7034C30.2178 24.808 29.3224 25.7034 28.2178 25.7034C27.1132 25.7034 26.2178 24.808 26.2178 23.7034V22.3839ZM59.9605 37.158L59.9573 37.1681C59.9663 37.1316 59.9705 37.125 59.9605 37.158Z" fill="#272727"/>
<path d="M36.5439 25.3152C36.8354 24.8475 37.4489 24.2061 38.2155 23.8917C38.8648 23.6253 39.7511 23.5287 40.9653 24.2899L40.9807 24.2995L40.9963 24.3089C41.4963 24.6098 42.5247 25.6859 42.2642 27.2539C42.0831 28.3435 42.8197 29.3736 43.9093 29.5547C44.9989 29.7357 46.029 28.9992 46.2101 27.9096C46.8307 24.1746 44.4206 21.7098 43.0759 20.892C40.7597 19.4457 38.5212 19.4429 36.6976 20.1908C34.9876 20.8922 33.7783 22.19 33.1491 23.1997C32.5649 24.1372 32.8513 25.3707 33.7888 25.9549C34.7262 26.539 35.9598 26.2526 36.5439 25.3152Z" fill="#272727"/>
</svg>
