<svg width="88" height="67" viewBox="0 0 88 67" fill="none" xmlns="http://www.w3.org/2000/svg">
<path d="M14.3371 28.98C13.2325 28.98 12.3371 29.8754 12.3371 30.98C12.3371 32.0846 13.2325 32.98 14.3371 32.98H29.1685C30.2731 32.98 31.1685 32.0846 31.1685 30.98C31.1685 29.8754 30.2731 28.98 29.1685 28.98H14.3371Z" fill="#272727"/>
<path fill-rule="evenodd" clip-rule="evenodd" d="M43.5281 7V60C43.5281 63.866 40.3941 67 36.5281 67H8.15731C5.89254 67 3.78624 65.9659 2.28011 64.2385C0.781566 62.5198 -0.0224609 60.2409 -0.0224609 57.9125V9.0875C-0.0224609 6.75913 0.781566 4.48015 2.28011 2.7615C3.78624 1.03414 5.89254 0 8.15731 0H36.5281C40.3941 0 43.5281 3.13401 43.5281 7ZM5.295 5.39026C6.10673 4.4593 7.14413 4 8.15731 4H36.5281C38.185 4 39.5281 5.34315 39.5281 7V48.825H8.15731C6.65056 48.825 5.21394 49.2827 3.97754 50.0978V9.0875C3.97754 7.65643 4.47567 6.32994 5.295 5.39026ZM8.15731 52.825H39.5281V60C39.5281 61.6569 38.185 63 36.5281 63H8.15731C7.14413 63 6.10673 62.5407 5.295 61.6097C4.47567 60.6701 3.97754 59.3436 3.97754 57.9125C3.97754 56.4814 4.47567 55.1549 5.295 54.2153C6.10673 53.2843 7.14413 52.825 8.15731 52.825Z" fill="#272727"/>
<path d="M75.0338 29.5186C75.0338 30.0465 74.8289 30.5529 74.4641 30.9262C74.0994 31.2995 73.6047 31.5093 73.0889 31.5093H71.7922C68.8692 31.5093 66.0659 30.3208 63.999 28.2052C61.9321 26.0897 60.771 23.2204 60.771 20.2285V18.9014C60.771 18.3734 60.9759 17.8671 61.3406 17.4937C61.7054 17.1204 62.2001 16.9107 62.7159 16.9107C63.2317 16.9107 63.7264 17.1204 64.0912 17.4937C64.4559 17.8671 64.6608 18.3734 64.6608 18.9014V20.2285C64.6608 22.1644 65.4122 24.021 66.7496 25.3899C68.087 26.7588 69.9009 27.5278 71.7922 27.5278H73.0889C73.6047 27.5278 74.0994 27.7376 74.4641 28.1109C74.8289 28.4842 75.0338 28.9906 75.0338 29.5186Z" fill="#272727"/>
<path fill-rule="evenodd" clip-rule="evenodd" d="M49.2825 57.4579C48.6097 56.3268 48 55.1353 48 53.8192V13.6747C48 12.3587 48.4681 11.0464 49.1061 9.89535C49.2061 9.71492 49.3081 9.52867 49.4115 9.33996L49.4137 9.33607C49.5244 9.13394 49.6367 8.92903 49.7497 8.72547C51.3745 5.79699 53.9 3.50081 56.9327 2.19465C59.9654 0.888491 63.3351 0.645716 66.5167 1.50415C69.6983 2.36257 72.5132 4.274 74.5228 6.94063C76.5323 9.60726 77.6238 12.8793 77.627 16.2471V17.133C80.713 18.548 83.3338 20.8455 85.1741 23.7492C87.0143 26.6528 87.9957 30.0389 88 33.5C87.9962 36.9599 87.015 40.345 85.1745 43.2471C83.3341 46.1493 80.713 48.4448 77.627 49.8571V50.7529C77.6238 54.1207 76.5323 57.3927 74.5228 60.0594C72.5132 62.726 69.6983 64.6374 66.5167 65.4959C63.3351 66.3543 59.9654 66.1115 56.9327 64.8054C53.9 63.4992 51.3745 61.203 49.7497 58.2745C49.5715 57.9534 49.4174 57.6845 49.2825 57.4579ZM70.4956 47.4351H67.9024C67.3865 47.4351 66.8918 47.6448 66.5271 48.0181C66.1624 48.3915 65.9574 48.8978 65.9574 49.4258C65.9574 49.9538 66.1624 50.4601 66.5271 50.8334C66.8918 51.2068 67.3865 51.4165 67.9024 51.4165H70.4956C71.5833 51.4165 72.6686 51.3121 73.7372 51.1046C73.6697 53.3195 72.9664 55.4649 71.715 57.2732C70.4637 59.0814 68.7198 60.4725 66.7009 61.2726C64.682 62.0727 62.4776 62.2466 60.3628 61.7724C58.248 61.2982 56.3165 60.197 54.8093 58.6063C53.3022 57.0155 52.2861 55.0057 51.8879 52.8275C51.4898 50.6494 51.7272 48.3995 52.5705 46.3586C53.4139 44.3178 54.8258 42.5763 56.63 41.3516C58.4343 40.1269 60.5509 39.4732 62.7159 39.4722C63.2317 39.4722 63.7264 39.2624 64.0912 38.8891C64.4559 38.5158 64.6608 38.0094 64.6608 37.4814C64.6608 36.9535 64.4559 36.4471 64.0912 36.0738C63.7264 35.7005 63.2317 35.4907 62.7159 35.4907C60.6401 35.4899 58.5871 35.9338 56.689 36.7937C54.7909 37.6537 53.0896 38.9108 51.6946 40.4841V16.2471C51.6946 13.2552 52.8558 10.3859 54.9227 8.27038C56.9896 6.15483 59.7929 4.96632 62.7159 4.96632C65.6389 4.96632 68.4422 6.15483 70.5091 8.27038C72.576 10.3859 73.7372 13.2552 73.7372 16.2471V18.48C73.737 18.8919 73.8616 19.2936 74.0938 19.63C74.326 19.9663 74.6544 20.2206 75.0338 20.3579C78.0645 21.4517 80.6195 23.6074 82.2467 26.4438C83.874 29.2802 84.4685 32.6143 83.9252 35.8561C83.3818 39.098 81.7356 42.0386 79.2779 44.1577C76.8201 46.2768 73.7092 47.4377 70.4956 47.4351Z" fill="#272727"/>
</svg>
