<svg width="82" height="72" viewBox="0 0 82 72" fill="none" xmlns="http://www.w3.org/2000/svg">
<path d="M41 0C41.7137 0 42.4208 0.0276863 43.1205 0.0820434L42.8107 4.07003C42.214 4.02367 41.6102 4 41 4C40.3899 4 39.7861 4.02367 39.1893 4.07003L38.8795 0.0820433C39.5792 0.0276863 40.2864 0 41 0Z" fill="#272727"/>
<path d="M51.3353 2.04878C50.0399 1.5116 48.6937 1.07237 47.3058 0.740312L46.375 4.63052C47.5557 4.91301 48.7009 5.28665 49.8031 5.74368L51.3353 2.04878Z" fill="#272727"/>
<path d="M55.1091 3.97524C56.3173 4.71719 57.4627 5.55157 58.5353 6.46854L55.9361 9.50896C55.0215 8.72705 54.0452 8.01591 53.0159 7.38384L55.1091 3.97524Z" fill="#272727"/>
<path d="M64.0248 12.8909C63.2828 11.6827 62.4484 10.5373 61.5315 9.4647L58.4911 12.0639C59.273 12.9785 59.9841 13.9548 60.6162 14.9841L64.0248 12.8909Z" fill="#272727"/>
<path d="M65.9512 16.6647C66.4884 17.9601 66.9276 19.3064 67.2597 20.6943L63.3695 21.625C63.087 20.4443 62.7134 19.2991 62.2563 18.1969L65.9512 16.6647Z" fill="#272727"/>
<path d="M18 27C18 26.3899 18.0237 25.786 18.07 25.1893L14.0821 24.8795C14.0277 25.5792 14 26.2864 14 27H18Z" fill="#272727"/>
<path d="M68 27H64C64 26.3899 63.9763 25.786 63.93 25.1893L67.918 24.8795C67.9723 25.5792 68 26.2864 68 27Z" fill="#272727"/>
<path d="M34.6943 0.740311C33.3064 1.07237 31.9601 1.5116 30.6647 2.04877L32.197 5.74368C33.2991 5.28664 34.4443 4.91301 35.625 4.63052L34.6943 0.740311Z" fill="#272727"/>
<path d="M23.4647 6.46854C24.5373 5.55157 25.6827 4.71719 26.8909 3.97524L28.9841 7.38384C27.9548 8.01591 26.9786 8.72705 26.0639 9.50896L23.4647 6.46854Z" fill="#272727"/>
<path d="M20.4686 9.4647C19.5516 10.5373 18.7172 11.6827 17.9753 12.8909L21.3839 14.9841C22.0159 13.9548 22.7271 12.9785 23.509 12.0639L20.4686 9.4647Z" fill="#272727"/>
<path d="M14.7403 20.6942C15.0724 19.3064 15.5116 17.9601 16.0488 16.6647L19.7437 18.1969C19.2867 19.2991 18.913 20.4443 18.6305 21.625L14.7403 20.6942Z" fill="#272727"/>
<path d="M35.1929 49.7919C35.1929 48.0998 35.1789 37.3876 23.1834 32.9674C19.8537 31.6187 11.9656 30.7429 5.27934 37.0323C1.88207 40.0704 -3.24961 48.5407 2.7759 58.4424L2.80271 58.4865L2.83176 58.5291C3.0453 58.8424 3.39055 59.4151 3.67393 60.0305C3.98599 60.7081 4.09424 61.1647 4.09424 61.3394V70C4.09424 71.1046 4.98967 72 6.09424 72C7.19881 72 8.09424 71.1046 8.09424 70V61.3394C8.09424 60.2544 7.66589 59.1363 7.30719 58.3573C6.93217 57.543 6.4894 56.7993 6.16841 56.3226C1.51345 48.6281 5.4586 42.2256 7.95987 40.0014L7.9818 39.9819L8.00316 39.9617C13.308 34.9581 19.4685 35.7669 21.7017 36.683L21.7366 36.6973L21.772 36.7103C31.193 40.166 31.1929 48.3122 31.1929 49.7854V49.7919C31.1929 51.2109 31.3908 52.3925 31.5235 52.9116L31.5602 53.0554L31.6179 53.1923C32.083 54.2972 33.0075 56.4693 33.6286 57.8453C33.3594 57.9206 33.0473 58.0038 32.7178 58.0844C30.7946 58.5547 30.2082 60.1786 30.1293 61.1194L29.3311 66.0645L29.3251 66.1224C29.2978 66.3898 29.2325 66.5412 29.1858 66.6222C29.1386 66.704 29.0833 66.7607 29.0211 66.8058C28.9539 66.8545 28.8717 66.8939 28.784 66.9203C28.6965 66.9466 28.6374 66.9499 28.6321 66.9502L23.4086 66.9502C22.4594 66.7982 21.9098 66.3505 21.5579 65.8709C21.149 65.3137 20.9903 64.6776 20.9682 64.3527C20.8931 63.2507 19.9388 62.4182 18.8368 62.4933C17.7348 62.5684 16.9023 63.5227 16.9774 64.6247C17.1012 66.4398 18.4586 70.3402 23.007 70.9334L23.1358 70.9502H28.6317C29.3944 70.9502 30.437 70.7195 31.3681 70.0449C32.3585 69.3273 33.1188 68.1776 33.2976 66.5927L34.0597 61.8714C34.8022 61.6796 35.4238 61.4909 35.691 61.4038L35.7459 61.3858L35.7998 61.3648C36.2471 61.1898 36.9147 60.8179 37.4054 60.16C37.6687 59.8068 37.9108 59.3284 37.9804 58.7372C38.0518 58.1312 37.9254 57.5429 37.6568 57.0173C37.2836 56.2873 36.0367 53.3761 35.3725 51.8016C35.3097 51.489 35.1929 50.7327 35.1929 49.7919Z" fill="#272727"/>
<path fill-rule="evenodd" clip-rule="evenodd" d="M24 47C24 50.3137 21.3137 53 18 53C14.6863 53 12 50.3137 12 47C12 43.6863 14.6863 41 18 41C21.3137 41 24 43.6863 24 47ZM20 47C20 48.1046 19.1046 49 18 49C16.8955 49 16 48.1046 16 47C16 45.8954 16.8955 45 18 45C19.1046 45 20 45.8954 20 47Z" fill="#272727"/>
<path d="M46.7991 49.7919C46.7991 48.0998 46.8132 37.3876 58.8087 32.9674C62.1383 31.6187 70.0264 30.7429 76.7127 37.0323C80.11 40.0704 85.2416 48.5407 79.2161 58.4424L79.1893 58.4865L79.1603 58.5291C78.9467 58.8424 78.6015 59.4151 78.3181 60.0305C78.0061 60.7081 77.8978 61.1647 77.8978 61.3394V70C77.8978 71.1046 77.0024 72 75.8978 72C74.7932 72 73.8978 71.1046 73.8978 70V61.3394C73.8978 60.2544 74.3261 59.1363 74.6848 58.3573C75.0599 57.543 75.5026 56.7993 75.8236 56.3226C80.4786 48.6281 76.5334 42.2256 74.0322 40.0014L74.0102 39.9819L73.9889 39.9617C68.684 34.9581 62.5236 35.7669 60.2903 36.683L60.2554 36.6973L60.22 36.7103C50.799 40.166 50.7991 48.3122 50.7991 49.7854V49.7919C50.7991 51.2109 50.6012 52.3925 50.4686 52.9116L50.4318 53.0554L50.3742 53.1923C49.9091 54.2972 48.9846 56.4693 48.3634 57.8453C48.6326 57.9206 48.9448 58.0038 49.2742 58.0844C51.1974 58.5547 51.7838 60.1786 51.8627 61.1194L52.661 66.0645L52.6669 66.1224C52.6942 66.3898 52.7595 66.5412 52.8062 66.6222C52.8534 66.704 52.9087 66.7607 52.9709 66.8058C53.0381 66.8545 53.1203 66.8939 53.2081 66.9203C53.2956 66.9466 53.3547 66.9499 53.3599 66.9502L58.5834 66.9502C59.5327 66.7982 60.0822 66.3505 60.4342 65.8709C60.843 65.3137 61.0017 64.6776 61.0238 64.3527C61.099 63.2507 62.0532 62.4182 63.1552 62.4933C64.2572 62.5684 65.0897 63.5227 65.0146 64.6247C64.8909 66.4398 63.5335 70.3402 58.985 70.9334L58.8562 70.9502H53.3603C52.5976 70.9502 51.555 70.7195 50.624 70.0449C49.6335 69.3273 48.8732 68.1776 48.6945 66.5927L47.9323 61.8714C47.1899 61.6796 46.5682 61.4909 46.301 61.4038L46.2461 61.3858L46.1923 61.3648C45.7449 61.1898 45.0774 60.8179 44.5867 60.16C44.3233 59.8068 44.0812 59.3284 44.0116 58.7372C43.9403 58.1312 44.0666 57.5429 44.3353 57.0173C44.7084 56.2873 45.9554 53.3761 46.6196 51.8016C46.6823 51.489 46.7991 50.7327 46.7991 49.7919Z" fill="#272727"/>
<path fill-rule="evenodd" clip-rule="evenodd" d="M57.992 47C57.992 50.3137 60.6783 53 63.992 53C67.3057 53 69.992 50.3137 69.992 47C69.992 43.6863 67.3057 41 63.992 41C60.6783 41 57.992 43.6863 57.992 47ZM61.992 47C61.992 48.1046 62.8874 49 63.992 49C65.0966 49 65.992 48.1046 65.992 47C65.992 45.8954 65.0966 45 63.992 45C62.8874 45 61.992 45.8954 61.992 47Z" fill="#272727"/>
</svg>
