<svg width="88" height="74" viewBox="0 0 88 74" fill="none" xmlns="http://www.w3.org/2000/svg">
<path d="M87.7233 37.2349C87.7183 33.3243 86.5965 29.4984 84.493 26.2176C82.3894 22.9369 79.3936 20.3409 75.8661 18.7421V17.7412C75.8624 13.9361 74.6148 10.239 72.3177 7.22609C70.0206 4.21313 66.803 2.05346 63.1661 1.08354C59.5293 0.113619 55.6775 0.387925 52.2108 1.86372C48.7442 3.33952 45.8573 5.93392 44.0001 9.24273C42.1428 5.93392 39.2559 3.33952 35.7893 1.86372C32.3226 0.387925 28.4708 0.113619 24.834 1.08354C21.1972 2.05346 17.9795 4.21313 15.6824 7.22609C13.3853 10.239 12.1377 13.9361 12.134 17.7412V18.7421C8.60371 20.3355 5.60523 22.9294 3.50105 26.2103C1.39688 29.4911 0.2771 33.3183 0.2771 37.2292C0.2771 41.1402 1.39688 44.9674 3.50105 48.2482C5.60523 51.529 8.60371 54.1229 12.134 55.7164V56.7285C12.1377 60.5337 13.3853 64.2307 15.6824 67.2437C17.9795 70.2566 21.1972 72.4163 24.834 73.3862C28.4708 74.3561 32.3226 74.0818 35.7893 72.606C39.2559 71.1302 42.1428 68.5358 44.0001 65.227C45.8573 68.5358 48.7442 71.1302 52.2108 72.606C55.6775 74.0818 59.5293 74.3561 63.1661 73.3862C66.803 72.4163 70.0206 70.2566 72.3177 67.2437C74.6148 64.2307 75.8624 60.5337 75.8661 56.7285V55.7164C79.3936 54.1207 82.3898 51.527 84.4935 48.2479C86.5973 44.9688 87.7189 41.1442 87.7233 37.2349ZM29.1786 69.4744C25.9043 69.476 22.758 68.1878 20.4064 65.8828C18.0547 63.5777 16.6825 60.437 16.5804 57.1259C17.8019 57.3603 19.0425 57.4783 20.2858 57.4783H23.2501C23.8397 57.4783 24.4052 57.2413 24.8221 56.8195C25.239 56.3977 25.4733 55.8256 25.4733 55.229C25.4733 54.6325 25.239 54.0604 24.8221 53.6385C24.4052 53.2167 23.8397 52.9797 23.2501 52.9797H20.2858C16.6124 52.9828 13.0564 51.6711 10.247 49.2768C7.43753 46.8825 5.55578 43.5599 4.9347 39.897C4.31361 36.2341 4.99323 32.467 6.85329 29.2622C8.71335 26.0575 11.6339 23.6217 15.0983 22.386C15.5319 22.2308 15.9073 21.9435 16.1728 21.5635C16.4382 21.1834 16.5807 20.7295 16.5804 20.2641V17.7412C16.5804 14.3608 17.9077 11.1189 20.2703 8.72854C22.633 6.33823 25.8374 4.99537 29.1786 4.99537C32.5199 4.99537 35.7243 6.33823 38.0869 8.72854C40.4495 11.1189 41.7768 14.3608 41.7768 17.7412V45.1261C40.1822 43.3484 38.2375 41.928 36.0678 40.9564C33.8981 39.9847 31.5514 39.4832 29.1786 39.4841C28.589 39.4841 28.0235 39.7211 27.6066 40.1429C27.1896 40.5648 26.9554 41.1369 26.9554 41.7334C26.9554 42.3299 27.1896 42.9021 27.6066 43.3239C28.0235 43.7457 28.589 43.9827 29.1786 43.9827C32.5199 43.9827 35.7243 45.3255 38.0869 47.7158C40.4495 50.1062 41.7768 53.3481 41.7768 56.7285C41.7768 60.1089 40.4495 63.3509 38.0869 65.7412C35.7243 68.1315 32.5199 69.4744 29.1786 69.4744ZM67.7143 52.9797H64.7501C64.1604 52.9797 63.5949 53.2167 63.178 53.6385C62.7611 54.0604 62.5268 54.6325 62.5268 55.229C62.5268 55.8256 62.7611 56.3977 63.178 56.8195C63.5949 57.2413 64.1604 57.4783 64.7501 57.4783H67.7143C68.9576 57.4783 70.1982 57.3603 71.4197 57.1259C71.3425 59.6284 70.5386 62.0525 69.1082 64.0956C67.6779 66.1387 65.6844 67.7104 63.3767 68.6144C61.0689 69.5185 58.5491 69.7149 56.1317 69.1791C53.7144 68.6434 51.5065 67.3992 49.7837 65.6018C48.0608 63.8045 46.8994 61.5336 46.4443 59.0726C45.9892 56.6116 46.2605 54.0695 47.2245 51.7635C48.1885 49.4576 49.8024 47.49 51.8648 46.1062C53.9272 44.7225 56.3468 43.9839 58.8215 43.9827C59.4111 43.9827 59.9766 43.7457 60.3935 43.3239C60.8105 42.9021 61.0447 42.3299 61.0447 41.7334C61.0447 41.1369 60.8105 40.5648 60.3935 40.1429C59.9766 39.7211 59.4111 39.4841 58.8215 39.4841C56.4487 39.4832 54.102 39.9847 51.9323 40.9564C49.7626 41.928 47.8179 43.3484 46.2233 45.1261V17.7412C46.2233 14.3608 47.5506 11.1189 49.9132 8.72854C52.2758 6.33823 55.4802 4.99537 58.8215 4.99537C62.1627 4.99537 65.3671 6.33823 67.7298 8.72854C70.0924 11.1189 71.4197 14.3608 71.4197 17.7412V20.2641C71.4195 20.7295 71.5619 21.1834 71.8273 21.5635C72.0928 21.9435 72.4682 22.2308 72.9018 22.386C76.3662 23.6217 79.2868 26.0575 81.1468 29.2622C83.0069 32.467 83.6865 36.2341 83.0654 39.897C82.4443 43.5599 80.5626 46.8825 77.7532 49.2768C74.9437 51.6711 71.3877 52.9828 67.7143 52.9797ZM72.9018 32.7363C72.9018 33.3329 72.6676 33.905 72.2507 34.3268C71.8337 34.7486 71.2683 34.9856 70.6786 34.9856H69.1965C65.8552 34.9856 62.6508 33.6427 60.2882 31.2524C57.9256 28.8621 56.5983 25.6202 56.5983 22.2398V20.7402C56.5983 20.1437 56.8325 19.5716 57.2494 19.1498C57.6664 18.7279 58.2319 18.491 58.8215 18.491C59.4111 18.491 59.9766 18.7279 60.3935 19.1498C60.8105 19.5716 61.0447 20.1437 61.0447 20.7402V22.2398C61.0447 24.4271 61.9035 26.5248 63.4323 28.0715C64.9611 29.6182 67.0345 30.4871 69.1965 30.4871H70.6786C71.2683 30.4871 71.8337 30.724 72.2507 31.1459C72.6676 31.5677 72.9018 32.1398 72.9018 32.7363ZM18.8036 34.9856H17.3215C16.7319 34.9856 16.1664 34.7486 15.7494 34.3268C15.3325 33.905 15.0983 33.3329 15.0983 32.7363C15.0983 32.1398 15.3325 31.5677 15.7494 31.1459C16.1664 30.724 16.7319 30.4871 17.3215 30.4871H18.8036C20.9656 30.4871 23.0391 29.6182 24.5678 28.0715C26.0966 26.5248 26.9554 24.4271 26.9554 22.2398V20.7402C26.9554 20.1437 27.1896 19.5716 27.6066 19.1498C28.0235 18.7279 28.589 18.491 29.1786 18.491C29.7683 18.491 30.3337 18.7279 30.7507 19.1498C31.1676 19.5716 31.4018 20.1437 31.4018 20.7402V22.2398C31.4018 25.6202 30.0745 28.8621 27.7119 31.2524C25.3493 33.6427 22.1449 34.9856 18.8036 34.9856Z" fill="#272727"/>
</svg>
