<svg width="82" height="85" viewBox="0 0 82 85" fill="none" xmlns="http://www.w3.org/2000/svg">
<path fill-rule="evenodd" clip-rule="evenodd" d="M45.3778 2.45298C47.0739 1.00497 50.4297 0.0253924 54.9674 2.58644C54.9758 2.5912 54.993 2.59823 55.0231 2.59887C55.0546 2.59954 55.0944 2.59282 55.1357 2.57454C57.3499 1.59524 61.6393 1.12249 65.8607 4.75078C65.8752 4.7632 65.9011 4.77634 65.9373 4.77825C67.7077 4.87122 70.1394 5.53654 72.1811 7.28568C74.2536 9.06128 75.8442 11.8867 75.9892 16.1268C75.9896 16.1384 75.9931 16.1533 76.0028 16.1696C76.0126 16.1863 76.027 16.201 76.044 16.2114C77.5477 17.1306 79.3749 18.7325 80.192 20.8692C80.6081 21.9575 80.7595 23.1816 80.4663 24.4916C80.1744 25.7958 79.4564 27.1214 78.2348 28.4448L78.2213 28.4595L78.2071 28.4737C77.7246 28.9561 76.9734 29.4693 76.0099 29.8308C76.1589 31.6644 75.8104 34.3083 74.2374 36.4997C72.6976 38.6447 70.0816 40.2211 66 40.2821V45.2665C66 46.2817 65.811 47.1361 65.4321 47.8265C65.0468 48.5285 64.4941 49.0064 63.8681 49.298C62.6652 49.8582 61.2787 49.6981 60.3041 49.4237C59.6479 49.2389 59.1575 48.8054 58.8331 48.3327C57.3012 46.1007 55.0116 42.8073 53.7119 41.059C53.5903 40.8955 53.3719 40.739 53.0283 40.6211C52.6875 40.5041 52.2848 40.4472 51.8919 40.4409C49.085 40.3958 47.6186 38.6193 47.1295 37.3162C46.3463 37.5623 45.5228 37.7135 44.6802 37.7393C41.4506 37.8383 38.1707 36.0943 35.9255 31.4201C35.9198 31.4081 35.9058 31.3881 35.8724 31.3689C35.8375 31.3488 35.7919 31.3362 35.7448 31.3374C33.9845 31.3804 31.7384 30.8114 29.8946 29.4218C28.0149 28.005 26.5771 25.7487 26.5031 22.5286C26.5026 22.5108 26.498 22.4902 26.49 22.473C25.9802 21.3675 25.4825 19.693 25.5242 17.9361C25.5664 16.1564 26.1699 14.226 27.9408 12.8038C27.9927 12.7621 28.0246 12.701 28.0303 12.6401C28.1459 11.4084 28.6136 9.80214 29.73 8.44055C30.8698 7.05028 32.6375 5.97731 35.206 5.79428C35.2516 5.79103 35.3366 5.75293 35.3891 5.64988C35.9556 4.53915 37.0065 3.28984 38.6422 2.55879C40.2973 1.81908 42.4444 1.65772 45.0979 2.5527C45.111 2.55712 45.1417 2.56336 45.1955 2.55012C45.2517 2.53631 45.3178 2.50418 45.3778 2.45298ZM53.9843 4.32818C50.0897 2.13005 47.6598 3.13448 46.6764 3.97406C46.1264 4.44355 45.2906 4.72841 44.4587 4.44781C42.2034 3.68714 40.5839 3.88161 39.4583 4.38472C38.3132 4.89649 37.5694 5.77698 37.1708 6.55851C36.8323 7.22235 36.1612 7.73128 35.3482 7.78922C33.3184 7.93386 32.0621 8.75051 31.2766 9.70858C30.4676 10.6953 30.1089 11.8961 30.0215 12.8269C29.9648 13.4318 29.6626 13.9861 29.1931 14.3631C27.9991 15.3221 27.5558 16.6244 27.5236 17.9835C27.4909 19.3654 27.8912 20.7356 28.3062 21.6354C28.4283 21.9001 28.4958 22.1901 28.5025 22.4827C28.5618 25.0573 29.6794 26.7551 31.0984 27.8246C32.5534 28.9213 34.3495 29.3709 35.6959 29.338C36.5067 29.3182 37.3406 29.7469 37.7283 30.5541C39.6929 34.6441 42.3138 35.8109 44.6189 35.7403C47.0441 35.666 49.3642 34.2186 50.5823 32.6401C51.2379 31.7904 52.4813 31.4616 53.4821 32.0292C56.2277 33.5865 58.9839 33.359 61.4156 32.3325C63.875 31.2942 65.9405 29.4561 67.1377 27.9452C67.7788 27.136 68.913 26.902 69.8214 27.3782C73.3648 29.2357 75.9551 27.884 76.7797 27.0725C77.8052 25.9573 78.3159 24.9429 78.5146 24.0548C78.713 23.1682 78.615 22.3447 78.3239 21.5835C77.7265 20.0213 76.3082 18.717 75.0008 17.9178C74.4064 17.5545 74.0148 16.9111 73.9904 16.1952C73.863 12.471 72.4948 10.1881 70.8798 8.80451C69.234 7.3945 67.2494 6.84991 65.8324 6.7755C65.3718 6.75131 64.9199 6.57941 64.5571 6.26752C60.9984 3.20886 57.5522 3.69267 55.9447 4.40363C55.3529 4.66534 54.6192 4.6865 53.9843 4.32818ZM68.8929 29.1496C70.8064 30.1527 72.5554 30.4157 74.0343 30.2802C74.0973 31.7508 73.7634 33.7303 72.6126 35.3334C71.3967 37.0273 69.1595 38.4546 65.0454 38.2676L65.0227 38.2665H65C64.9958 38.2664 64.9728 38.2658 64.9289 38.2625C64.8806 38.259 64.8153 38.2529 64.7345 38.2433C64.5731 38.2241 64.3567 38.1914 64.0997 38.1386C63.5845 38.0327 62.9198 37.8487 62.2152 37.5387C61.1214 37.0574 59.9582 36.2861 59.0854 35.0474C60.1729 34.8965 61.2168 34.5873 62.1934 34.175C65.0211 32.9813 67.343 30.9066 68.7053 29.1873C68.7235 29.1642 68.7521 29.145 68.7904 29.137C68.8289 29.1289 68.8647 29.1348 68.8929 29.1496ZM52.4954 33.7689C53.9414 34.589 55.3906 35.0035 56.798 35.117C57.9515 37.3793 59.7955 38.6591 61.4098 39.3694C62.3976 39.804 63.3236 40.0368 64 40.1553V45.2665C64 46.0412 63.8553 46.5427 63.6789 46.8641C63.5089 47.1738 63.2845 47.3635 63.0237 47.485C62.4531 47.7507 61.6272 47.7184 60.8461 47.4985C60.7392 47.4684 60.6063 47.3819 60.4821 47.201C58.9523 44.9719 56.6424 41.6487 55.3169 39.8658C54.8792 39.277 54.263 38.9303 53.6775 38.7294C53.0892 38.5275 52.4683 38.4499 51.924 38.4411C50.007 38.4103 49.1785 37.1856 48.9732 36.5307C50.2837 35.8181 51.3935 34.8626 52.1657 33.8619C52.2034 33.813 52.2661 33.7714 52.3407 33.7546C52.4134 33.7383 52.4656 33.752 52.4954 33.7689Z" fill="#272727"/>
<path fill-rule="evenodd" clip-rule="evenodd" d="M28.6718 50.7811C26.5405 50.3591 24.8712 50.5887 24.1838 50.8179L24.0856 50.8506L17.9462 54.4319L17.9 54.4665C16.5291 55.4947 14.6993 55.7665 14 55.7665H5.5C3.83424 55.7665 2.66758 56.3754 1.9343 57.2484C1.23375 58.0823 1 59.0719 1 59.7665V70.2666C1 71.7925 1.6582 72.8427 2.5407 73.4781C3.3722 74.0768 4.33998 74.2666 5 74.2666H15.8439C24.2625 76.961 41.1836 82.417 43.1286 83.195C45.547 84.1624 47.7464 83.2068 48.6 82.5666L79.1135 59.5564L79.1247 59.5474C79.6663 59.1141 80.3365 58.322 80.6257 57.2853C80.9318 56.188 80.7845 54.8964 79.7809 53.6419C78.7773 52.3874 77.5495 51.9601 76.4118 52.0179C75.3707 52.0707 74.475 52.5226 73.9276 52.9446L62.6334 59.8949C62.5376 58.8007 62.1453 57.8963 61.591 57.1797C60.7478 56.0898 59.5886 55.5079 58.7425 55.2964L58.6959 55.2848L28.6718 50.7811ZM24.9004 52.6907L19.0519 56.1023C17.2307 57.4441 14.9589 57.7665 14 57.7665H5.5C4.36576 57.7665 3.78242 58.1577 3.4657 58.5347C3.11625 58.9508 3 59.4612 3 59.7665V70.2666C3 71.1407 3.3418 71.5904 3.7093 71.855C4.1278 72.1563 4.66002 72.2666 5 72.2666H16.1561L16.3048 72.3141C24.6051 74.9702 41.828 80.5207 43.8714 81.3381C45.4518 81.9702 46.9179 81.3274 47.3988 80.9675L47.4 80.9666L77.8852 57.9778C78.1755 57.7421 78.5485 57.2883 78.6993 56.7479C78.8349 56.2618 78.8155 55.6368 78.2191 54.8913C77.6227 54.1458 77.0171 53.9897 76.5132 54.0153C75.9465 54.0441 75.4164 54.3141 75.1247 54.5474L75.0766 54.5859L62.9825 62.0284L63.035 62.1114L59.6648 64.2459L59.6634 64.2468L49.2586 70.8365C48.1635 71.53 46.7469 71.4418 45.7463 70.6178L38.6412 64.7666H32C31.4477 64.7666 31 64.3189 31 63.7666C31 63.2143 31.4477 62.7666 32 62.7666H39L58.0625 62.7114C58.251 62.7109 58.4355 62.6571 58.5947 62.5563L60.5734 61.303C60.8227 59.9167 60.4738 59.0042 60.009 58.4034C59.5004 57.7459 58.7867 57.3797 58.2996 57.2477L28.3277 52.7519L28.3039 52.7471C26.5828 52.4029 25.3225 52.5806 24.9004 52.6907ZM55.1786 64.7198L48.1885 69.1468C47.8235 69.378 47.3513 69.3486 47.0177 69.074L41.7776 64.7585L55.1786 64.7198Z" fill="#272727"/>
<path fill-rule="evenodd" clip-rule="evenodd" d="M45.3778 2.45298C47.0739 1.00497 50.4297 0.0253924 54.9674 2.58644C54.9758 2.5912 54.993 2.59823 55.0231 2.59887C55.0546 2.59954 55.0944 2.59282 55.1357 2.57454C57.3499 1.59524 61.6393 1.12249 65.8607 4.75078C65.8752 4.7632 65.9011 4.77634 65.9373 4.77825C67.7077 4.87122 70.1394 5.53654 72.1811 7.28568C74.2536 9.06128 75.8442 11.8867 75.9892 16.1268C75.9896 16.1384 75.9931 16.1533 76.0028 16.1696C76.0126 16.1863 76.027 16.201 76.044 16.2114C77.5477 17.1306 79.3749 18.7325 80.192 20.8692C80.6081 21.9575 80.7595 23.1816 80.4663 24.4916C80.1744 25.7958 79.4564 27.1214 78.2348 28.4448L78.2213 28.4595L78.2071 28.4737C77.7246 28.9561 76.9734 29.4693 76.0099 29.8308C76.1589 31.6644 75.8104 34.3083 74.2374 36.4997C72.6976 38.6447 70.0816 40.2211 66 40.2821V45.2665C66 46.2817 65.811 47.1361 65.4321 47.8265C65.0468 48.5285 64.4941 49.0064 63.8681 49.298C62.6652 49.8582 61.2787 49.6981 60.3041 49.4237C59.6479 49.2389 59.1575 48.8054 58.8331 48.3327C57.3012 46.1007 55.0116 42.8073 53.7119 41.059C53.5903 40.8955 53.3719 40.739 53.0283 40.6211C52.6875 40.5041 52.2848 40.4472 51.8919 40.4409C49.085 40.3958 47.6186 38.6193 47.1295 37.3162C46.3463 37.5623 45.5228 37.7135 44.6802 37.7393C41.4506 37.8383 38.1707 36.0943 35.9255 31.4201C35.9198 31.4081 35.9058 31.3881 35.8724 31.3689C35.8375 31.3488 35.7919 31.3362 35.7448 31.3374C33.9845 31.3804 31.7384 30.8114 29.8946 29.4218C28.0149 28.005 26.5771 25.7487 26.5031 22.5286C26.5026 22.5108 26.498 22.4902 26.49 22.473C25.9802 21.3675 25.4825 19.693 25.5242 17.9361C25.5664 16.1564 26.1699 14.226 27.9408 12.8038C27.9927 12.7621 28.0246 12.701 28.0303 12.6401C28.1459 11.4084 28.6136 9.80214 29.73 8.44055C30.8698 7.05028 32.6375 5.97731 35.206 5.79428C35.2516 5.79103 35.3366 5.75293 35.3891 5.64988C35.9556 4.53915 37.0065 3.28984 38.6422 2.55879C40.2973 1.81908 42.4444 1.65772 45.0979 2.5527C45.111 2.55712 45.1417 2.56336 45.1955 2.55012C45.2517 2.53631 45.3178 2.50418 45.3778 2.45298ZM53.9843 4.32818C50.0897 2.13005 47.6598 3.13448 46.6764 3.97406C46.1264 4.44355 45.2906 4.72841 44.4587 4.44781C42.2034 3.68714 40.5839 3.88161 39.4583 4.38472C38.3132 4.89649 37.5694 5.77698 37.1708 6.55851C36.8323 7.22235 36.1612 7.73128 35.3482 7.78922C33.3184 7.93386 32.0621 8.75051 31.2766 9.70858C30.4676 10.6953 30.1089 11.8961 30.0215 12.8269C29.9648 13.4318 29.6626 13.9861 29.1931 14.3631C27.9991 15.3221 27.5558 16.6244 27.5236 17.9835C27.4909 19.3654 27.8912 20.7356 28.3062 21.6354C28.4283 21.9001 28.4958 22.1901 28.5025 22.4827C28.5618 25.0573 29.6794 26.7551 31.0984 27.8246C32.5534 28.9213 34.3495 29.3709 35.6959 29.338C36.5067 29.3182 37.3406 29.7469 37.7283 30.5541C39.6929 34.6441 42.3138 35.8109 44.6189 35.7403C47.0441 35.666 49.3642 34.2186 50.5823 32.6401C51.2379 31.7904 52.4813 31.4616 53.4821 32.0292C56.2277 33.5865 58.9839 33.359 61.4156 32.3325C63.875 31.2942 65.9405 29.4561 67.1377 27.9452C67.7788 27.136 68.913 26.902 69.8214 27.3782C73.3648 29.2357 75.9551 27.884 76.7797 27.0725C77.8052 25.9573 78.3159 24.9429 78.5146 24.0548C78.713 23.1682 78.615 22.3447 78.3239 21.5835C77.7265 20.0213 76.3082 18.717 75.0008 17.9178C74.4064 17.5545 74.0148 16.9111 73.9904 16.1952C73.863 12.471 72.4948 10.1881 70.8798 8.80451C69.234 7.3945 67.2494 6.84991 65.8324 6.7755C65.3718 6.75131 64.9199 6.57941 64.5571 6.26752C60.9984 3.20886 57.5522 3.69267 55.9447 4.40363C55.3529 4.66534 54.6192 4.6865 53.9843 4.32818ZM68.8929 29.1496C70.8064 30.1527 72.5554 30.4157 74.0343 30.2802C74.0973 31.7508 73.7634 33.7303 72.6126 35.3334C71.3967 37.0273 69.1595 38.4546 65.0454 38.2676L65.0227 38.2665H65C64.9958 38.2664 64.9728 38.2658 64.9289 38.2625C64.8806 38.259 64.8153 38.2529 64.7345 38.2433C64.5731 38.2241 64.3567 38.1914 64.0997 38.1386C63.5845 38.0327 62.9198 37.8487 62.2152 37.5387C61.1214 37.0574 59.9582 36.2861 59.0854 35.0474C60.1729 34.8965 61.2168 34.5873 62.1934 34.175C65.0211 32.9813 67.343 30.9066 68.7053 29.1873C68.7235 29.1642 68.7521 29.145 68.7904 29.137C68.8289 29.1289 68.8647 29.1348 68.8929 29.1496ZM52.4954 33.7689C53.9414 34.589 55.3906 35.0035 56.798 35.117C57.9515 37.3793 59.7955 38.6591 61.4098 39.3694C62.3976 39.804 63.3236 40.0368 64 40.1553V45.2665C64 46.0412 63.8553 46.5427 63.6789 46.8641C63.5089 47.1738 63.2845 47.3635 63.0237 47.485C62.4531 47.7507 61.6272 47.7184 60.8461 47.4985C60.7392 47.4684 60.6063 47.3819 60.4821 47.201C58.9523 44.9719 56.6424 41.6487 55.3169 39.8658C54.8792 39.277 54.263 38.9303 53.6775 38.7294C53.0892 38.5275 52.4683 38.4499 51.924 38.4411C50.007 38.4103 49.1785 37.1856 48.9732 36.5307C50.2837 35.8181 51.3935 34.8626 52.1657 33.8619C52.2034 33.813 52.2661 33.7714 52.3407 33.7546C52.4134 33.7383 52.4656 33.752 52.4954 33.7689Z" stroke="#272727" stroke-width="2" stroke-linecap="round"/>
<path fill-rule="evenodd" clip-rule="evenodd" d="M28.6718 50.7811C26.5405 50.3591 24.8712 50.5887 24.1838 50.8179L24.0856 50.8506L17.9462 54.4319L17.9 54.4665C16.5291 55.4947 14.6993 55.7665 14 55.7665H5.5C3.83424 55.7665 2.66758 56.3754 1.9343 57.2484C1.23375 58.0823 1 59.0719 1 59.7665V70.2666C1 71.7925 1.6582 72.8427 2.5407 73.4781C3.3722 74.0768 4.33998 74.2666 5 74.2666H15.8439C24.2625 76.961 41.1836 82.417 43.1286 83.195C45.547 84.1624 47.7464 83.2068 48.6 82.5666L79.1135 59.5564L79.1247 59.5474C79.6663 59.1141 80.3365 58.322 80.6257 57.2853C80.9318 56.188 80.7845 54.8964 79.7809 53.6419C78.7773 52.3874 77.5495 51.9601 76.4118 52.0179C75.3707 52.0707 74.475 52.5226 73.9276 52.9446L62.6334 59.8949C62.5376 58.8007 62.1453 57.8963 61.591 57.1797C60.7478 56.0898 59.5886 55.5079 58.7425 55.2964L58.6959 55.2848L28.6718 50.7811ZM24.9004 52.6907L19.0519 56.1023C17.2307 57.4441 14.9589 57.7665 14 57.7665H5.5C4.36576 57.7665 3.78242 58.1577 3.4657 58.5347C3.11625 58.9508 3 59.4612 3 59.7665V70.2666C3 71.1407 3.3418 71.5904 3.7093 71.855C4.1278 72.1563 4.66002 72.2666 5 72.2666H16.1561L16.3048 72.3141C24.6051 74.9702 41.828 80.5207 43.8714 81.3381C45.4518 81.9702 46.9179 81.3274 47.3988 80.9675L47.4 80.9666L77.8852 57.9778C78.1755 57.7421 78.5485 57.2883 78.6993 56.7479C78.8349 56.2618 78.8155 55.6368 78.2191 54.8913C77.6227 54.1458 77.0171 53.9897 76.5132 54.0153C75.9465 54.0441 75.4164 54.3141 75.1247 54.5474L75.0766 54.5859L62.9825 62.0284L63.035 62.1114L59.6648 64.2459L59.6634 64.2468L49.2586 70.8365C48.1635 71.53 46.7469 71.4418 45.7463 70.6178L38.6412 64.7666H32C31.4477 64.7666 31 64.3189 31 63.7666C31 63.2143 31.4477 62.7666 32 62.7666H39L58.0625 62.7114C58.251 62.7109 58.4355 62.6571 58.5947 62.5563L60.5734 61.303C60.8227 59.9167 60.4738 59.0042 60.009 58.4034C59.5004 57.7459 58.7867 57.3797 58.2996 57.2477L28.3277 52.7519L28.3039 52.7471C26.5828 52.4029 25.3225 52.5806 24.9004 52.6907ZM55.1786 64.7198L48.1885 69.1468C47.8235 69.378 47.3513 69.3486 47.0177 69.074L41.7776 64.7585L55.1786 64.7198Z" stroke="#272727" stroke-width="2" stroke-linecap="round"/>
</svg>
