<svg width="25" height="24" viewBox="0 0 25 24" fill="none" xmlns="http://www.w3.org/2000/svg">
<path fill-rule="evenodd" clip-rule="evenodd" d="M0.75 1.58052C0.75 0.754203 1.2049 -0.650528 3.02451 0.341047L5.71258 2.25188C7.81478 0.668118 13.4873 -1.6008 19.3597 1.99366C21.3929 3.25034 25.3044 7.2614 24.6841 13.2522C24.4256 16.282 21.9443 22.6618 14.0869 23.9426C10.5718 24.3041 3.99635 23.1266 1.26694 15.5245C1.09462 14.8704 0.75 13.4278 0.75 12.8907V1.58052ZM9.79939 17.5192C10.2443 17.9531 10.835 18.1461 11.4096 18.1001C11.9804 18.1398 12.5649 17.944 13.0047 17.5114L19.9332 10.6959C20.7469 9.89544 20.7571 8.5875 19.9559 7.77454C19.1546 6.96157 17.8455 6.95143 17.0317 7.75189L11.3925 13.2991L8.34592 10.3279C7.52875 9.53094 6.21962 9.5467 5.42191 10.3631C4.62419 11.1795 4.63996 12.4874 5.45714 13.2843L9.79939 17.5192Z" fill="#989695"/>
</svg>
