<svg width="25" height="24" viewBox="0 0 25 24" fill="none" xmlns="http://www.w3.org/2000/svg">
<path d="M7.71 0H17.79C19.6355 0.00132436 21.405 0.735033 22.71 2.04C24.015 3.34497 24.7487 5.1145 24.75 6.96V17.04C24.75 17.954 24.57 18.8591 24.2202 19.7035C23.8704 20.5479 23.3578 21.3152 22.7115 21.9615C22.0652 22.6078 21.2979 23.1204 20.4535 23.4702C19.6091 23.82 18.704 24 17.79 24H7.71C5.8645 23.9987 4.09497 23.265 2.79 21.96C1.48503 20.655 0.751324 18.8855 0.75 17.04V6.96C0.75 5.11409 1.48328 3.34379 2.78854 2.03854C4.09379 0.733284 5.86409 0 7.71 0ZM7.47 2.4C6.32427 2.4 5.22546 2.85514 4.4153 3.6653C3.60514 4.47546 3.15 5.57427 3.15 6.72V17.28C3.14961 17.8474 3.26108 18.4094 3.47804 18.9337C3.695 19.458 4.01319 19.9344 4.41442 20.3356C4.81565 20.7368 5.29204 21.055 5.81634 21.272C6.34065 21.4889 6.90258 21.6004 7.47 21.6H18.03C19.1757 21.6 20.2745 21.1449 21.0847 20.3347C21.8949 19.5245 22.35 18.4257 22.35 17.28V6.72C22.3504 6.15258 22.2389 5.59065 22.022 5.06634C21.805 4.54204 21.4868 4.06565 21.0856 3.66442C20.6844 3.26319 20.208 2.945 19.6837 2.72804C19.1594 2.51108 18.5974 2.39961 18.03 2.4H7.47ZM19.05 4.2C19.3467 4.2 19.6367 4.28797 19.8834 4.4528C20.13 4.61762 20.3223 4.85189 20.4358 5.12597C20.5494 5.40006 20.5791 5.70166 20.5212 5.99264C20.4633 6.28361 20.3204 6.55088 20.1107 6.76066C19.9009 6.97044 19.6336 7.1133 19.3426 7.17118C19.0517 7.22906 18.7501 7.19935 18.476 7.08582C18.2019 6.97229 17.9676 6.78003 17.8028 6.53336C17.638 6.28668 17.55 5.99667 17.55 5.7C17.55 5.30218 17.708 4.92064 17.9893 4.63934C18.2706 4.35804 18.6522 4.2 19.05 4.2ZM12.75 6C13.9367 6 15.0967 6.35189 16.0834 7.01118C17.0701 7.67047 17.8392 8.60754 18.2933 9.7039C18.7474 10.8003 18.8662 12.0067 18.6347 13.1705C18.4032 14.3344 17.8318 15.4035 16.9926 16.2426C16.1535 17.0818 15.0844 17.6532 13.9205 17.8847C12.7567 18.1162 11.5503 17.9974 10.4539 17.5433C9.35754 17.0892 8.42047 16.3201 7.76118 15.3334C7.10189 14.3467 6.75 13.1867 6.75 12C6.75 10.4087 7.38214 8.88258 8.50736 7.75736C9.63258 6.63214 11.1587 6 12.75 6ZM12.75 8.4C12.038 8.4 11.342 8.61114 10.7499 9.00671C10.1579 9.40228 9.69651 9.96453 9.42403 10.6223C9.15156 11.2802 9.08027 12.004 9.21917 12.7023C9.35808 13.4007 9.70095 14.0421 10.2044 14.5456C10.7079 15.0491 11.3493 15.3919 12.0477 15.5308C12.746 15.6697 13.4698 15.5984 14.1277 15.326C14.7855 15.0535 15.3477 14.5921 15.7433 14.0001C16.1389 13.408 16.35 12.712 16.35 12C16.35 11.0452 15.9707 10.1295 15.2956 9.45442C14.6205 8.77928 13.7048 8.4 12.75 8.4Z" fill="#989695"/>
</svg>
