<svg width="22" height="22" viewBox="0 0 22 22" fill="none" xmlns="http://www.w3.org/2000/svg">
<path d="M12.6162 14.9968C12.5771 14.958 12.5242 14.9363 12.4691 14.9363C12.414 14.9363 12.3611 14.958 12.3219 14.9968L9.29573 18.023C7.89462 19.4241 5.52992 19.5725 3.98297 18.023C2.43342 16.4734 2.58186 14.1113 3.98297 12.7102L7.00916 9.68402C7.0899 9.60328 7.0899 9.47047 7.00916 9.38973L5.97265 8.35322C5.9335 8.31445 5.88062 8.2927 5.82551 8.2927C5.77041 8.2927 5.71753 8.31445 5.67837 8.35322L2.65218 11.3794C0.448948 13.5826 0.448948 17.1479 2.65218 19.3486C4.85541 21.5492 8.42069 21.5518 10.6213 19.3486L13.6475 16.3224C13.7282 16.2416 13.7282 16.1088 13.6475 16.0281L12.6162 14.9968ZM19.3509 2.65242C17.1477 0.449192 13.5824 0.449192 11.3818 2.65242L8.35298 5.67861C8.31421 5.71777 8.29246 5.77065 8.29246 5.82576C8.29246 5.88086 8.31421 5.93374 8.35298 5.9729L9.38688 7.0068C9.46762 7.08754 9.60044 7.08754 9.68117 7.0068L12.7074 3.98061C14.1085 2.5795 16.4732 2.43106 18.0201 3.98061C19.5697 5.53017 19.4212 7.89226 18.0201 9.29337L14.9939 12.3196C14.9552 12.3587 14.9334 12.4116 14.9334 12.4667C14.9334 12.5218 14.9552 12.5747 14.9939 12.6138L16.0304 13.6504C16.1112 13.7311 16.244 13.7311 16.3247 13.6504L19.3509 10.6242C21.5515 8.42094 21.5515 4.85566 19.3509 2.65242ZM13.5564 7.36359C13.5172 7.32482 13.4643 7.30307 13.4092 7.30307C13.3541 7.30307 13.3012 7.32482 13.2621 7.36359L7.36335 13.2597C7.32457 13.2989 7.30282 13.3517 7.30282 13.4069C7.30282 13.462 7.32457 13.5148 7.36335 13.554L8.39465 14.5853C8.47538 14.666 8.6082 14.666 8.68893 14.5853L14.5851 8.68918C14.6658 8.60845 14.6658 8.47563 14.5851 8.39489L13.5564 7.36359Z" fill="#858687" stroke="#858687"/>
</svg>
