<svg width="23" height="24" viewBox="0 0 23 24" fill="none" xmlns="http://www.w3.org/2000/svg">
<g clip-path="url(#clip0_86_533)">
<path d="M9.83878 0.661786C10.4304 0.334325 11.0675 0.0346361 11.7548 0.00976562C11.759 1.41536 11.7552 2.82096 11.7565 4.22655C11.7502 4.71526 11.7694 5.20479 11.7461 5.69267L11.7394 5.69598C11.01 5.26448 10.2565 4.8736 9.51799 4.45743C8.44077 3.86096 7.36064 3.26904 6.28467 2.67008C7.46674 1.9965 8.65338 1.32997 9.83878 0.661786Z" fill="#989695"/>
<path d="M11.7548 0.00976562C12.5599 0.0213718 13.2777 0.440854 13.9634 0.818056C15.0468 1.43443 16.1403 2.03629 17.2154 2.6651C15.6938 3.49826 14.1772 4.34137 12.6577 5.17868C12.3552 5.35194 12.0403 5.50531 11.7465 5.69267H11.7461C11.7694 5.20479 11.7503 4.71526 11.7565 4.22655C11.7552 2.82096 11.759 1.41536 11.7548 0.00976562Z" fill="#989695"/>
<path d="M17.2154 2.66469L17.2312 2.65723L17.2432 2.67173C17.2303 4.73764 17.2457 6.80355 17.2357 8.86904L17.2158 8.88148C15.3967 7.81122 13.5626 6.76666 11.7465 5.69225C12.0402 5.50489 12.3552 5.35153 12.6577 5.17826C14.1772 4.34096 15.6938 3.49785 17.2154 2.66469Z" fill="#989695"/>
<path d="M2.57361 4.79268C3.79438 4.08097 5.02388 3.38336 6.25214 2.68408C6.25505 4.74957 6.24839 6.81465 6.2563 8.87973C5.69377 8.60367 5.15828 8.27496 4.60448 7.98273C3.45195 7.339 2.28777 6.71558 1.14148 6.06149C1.46144 5.4932 2.01566 5.10688 2.57361 4.79268Z" fill="#989695"/>
<path d="M6.2522 2.68401L6.28465 2.66992C7.36062 3.26889 8.44075 3.8608 9.51797 4.45728C10.2565 4.87345 11.01 5.26433 11.7394 5.69583C9.93447 6.74412 8.13119 7.79573 6.32459 8.84111C6.30753 8.85065 6.27342 8.86972 6.25636 8.87966C6.24845 6.81459 6.25511 4.74951 6.2522 2.68401Z" fill="#989695"/>
<path d="M17.2432 2.67188C18.4398 3.34835 19.6315 4.03395 20.8194 4.72535C21.4139 5.06359 22.0493 5.4354 22.3747 6.06296C20.6733 7.00763 18.9666 7.94234 17.2657 8.88783L17.2357 8.86918C17.2457 6.80369 17.2303 4.73778 17.2432 2.67188Z" fill="#989695"/>
<path d="M0.837346 7.01116C0.897677 6.68453 0.972155 6.35126 1.1415 6.06152C2.28779 6.71562 3.45197 7.33904 4.6045 7.98277C5.15829 8.275 5.69378 8.6037 6.25632 8.87976L6.25174 8.88225C4.4156 9.94297 2.5832 11.0099 0.751221 12.0781C0.75871 11.0228 0.752051 9.96702 0.754547 8.91168C0.757044 8.27748 0.735824 7.63955 0.837346 7.01116Z" fill="#989695"/>
<path d="M17.2657 8.88786C18.9667 7.94237 20.6734 7.00765 22.3747 6.06299C22.6273 6.52972 22.7034 7.06527 22.7459 7.58506C22.7492 9.08599 22.7459 10.5873 22.748 12.0887L22.7193 12.0928C22.614 11.9743 22.4642 11.9154 22.3319 11.8354C20.6439 10.851 18.9521 9.87356 17.2657 8.88786Z" fill="#989695"/>
<path d="M17.2357 8.86914L17.2657 8.88779C18.952 9.87349 20.6438 10.8509 22.3318 11.8354C22.4641 11.9154 22.6139 11.9742 22.7192 12.0928C20.888 13.0917 19.0698 14.1152 17.2366 15.11C17.2366 13.0296 17.2382 10.9491 17.2357 8.86914Z" fill="#989695"/>
<path d="M0.751221 12.0777C2.5832 11.0095 4.4156 9.94256 6.25174 8.88184C6.25174 10.9552 6.2559 13.029 6.24966 15.1028C5.15496 14.527 4.08315 13.9069 2.99512 13.3179C2.25242 12.9079 1.51014 12.4972 0.767446 12.0868L0.751221 12.0777Z" fill="#989695"/>
<path d="M0.767487 12.0869C1.51018 12.4973 2.25246 12.9081 2.99516 13.318C4.0832 13.907 5.15501 14.5271 6.2497 15.1029L6.25969 15.1078C4.57 16.0828 2.88739 17.0689 1.19896 18.0455C0.886901 17.5497 0.811592 16.9487 0.771233 16.3762C0.73545 15.2579 0.76291 14.1371 0.754172 13.0175C0.762494 12.7078 0.737113 12.3928 0.767487 12.0869Z" fill="#989695"/>
<path d="M17.2366 15.1102C19.0698 14.1154 20.8881 13.092 22.7192 12.093L22.7479 12.0889C22.7463 13.3651 22.7475 14.6414 22.7471 15.9177C22.7579 16.6451 22.6976 17.4178 22.3098 18.0549C20.8569 17.2172 19.4102 16.3691 17.9589 15.5285C17.7147 15.3917 17.4792 15.2395 17.2291 15.1135L17.2366 15.1102Z" fill="#989695"/>
<path d="M1.19897 18.0455C2.88741 17.0689 4.57002 16.0828 6.2597 15.1079C6.24472 17.1809 6.25513 19.2546 6.25429 21.328C5.29732 20.7804 4.33535 20.242 3.3788 19.694C2.98394 19.4669 2.58243 19.2493 2.2013 18.9989C1.81726 18.7411 1.44488 18.4426 1.19897 18.0455Z" fill="#989695"/>
<path d="M6.25962 15.1079C8.08744 16.1181 9.91485 17.129 11.7447 18.1359L11.7547 18.1413C9.91734 19.1879 8.09701 20.2665 6.26461 21.3222L6.25421 21.328C6.25504 19.2546 6.24464 17.1809 6.25962 15.1079Z" fill="#989695"/>
<path d="M11.7448 18.1359C13.5747 17.1319 15.3975 16.1139 17.229 15.1133C17.2482 17.1875 17.2295 19.2621 17.2386 21.3363L17.2261 21.3288C15.4075 20.2577 13.5755 19.2094 11.7547 18.1413L11.7448 18.1359Z" fill="#989695"/>
<path d="M17.2291 15.1133C17.4792 15.2393 17.7147 15.3914 17.9589 15.5282C19.4102 16.3688 20.8569 17.2169 22.3098 18.0546C22.0897 18.4488 21.7148 18.7236 21.3508 18.9769C20.7887 19.3433 20.1953 19.6584 19.6153 19.9945C18.8235 20.4426 18.0322 20.8915 17.2387 21.3363C17.2295 19.2621 17.2483 17.1875 17.2291 15.1133Z" fill="#989695"/>
<path d="M6.26465 21.322C8.09705 20.2663 9.91738 19.1877 11.7548 18.1411C11.7568 20.0918 11.7585 22.042 11.7535 23.9923C11.2883 23.9778 10.8244 23.851 10.4158 23.6296C9.03156 22.8615 7.63728 22.1084 6.26465 21.322Z" fill="#989695"/>
<path d="M11.7548 18.1411C13.5755 19.2093 15.4075 20.2576 17.2262 21.3287C16.6183 21.6831 15.9946 22.0126 15.3801 22.3567C14.5483 22.8143 13.7199 23.2769 12.8865 23.7308C12.5333 23.8937 12.1447 23.9981 11.7535 23.9923C11.7585 22.042 11.7569 20.0918 11.7548 18.1411Z" fill="#989695"/>
</g>
<defs>
<clipPath id="clip0_86_533">
<rect width="22" height="24" fill="white" transform="translate(0.75)"/>
</clipPath>
</defs>
</svg>
