<?xml version="1.0" encoding="UTF-8"?>
<svg id="Layer_2" data-name="Layer 2" xmlns="http://www.w3.org/2000/svg" viewBox="0 0 374.11 379.01">
  <defs>
    <style>
      .cls-1 {
        fill-rule: evenodd;
      }

      .cls-1, .cls-2, .cls-3, .cls-4, .cls-5 {
        fill: #1f3c88;
      }

      .cls-6, .cls-7, .cls-8, .cls-3, .cls-4, .cls-5, .cls-9, .cls-10 {
        isolation: isolate;
      }

      .cls-6, .cls-3, .cls-9 {
        opacity: .4;
      }

      .cls-6, .cls-11 {
        fill: #c89b35;
      }

      .cls-12 {
        stroke: #a29bfe;
      }

      .cls-12, .cls-13 {
        fill: none;
      }

      .cls-14 {
        fill: #fff;
      }

      .cls-7 {
        opacity: .38;
      }

      .cls-7, .cls-8, .cls-10 {
        fill: #27481f;
      }

      .cls-8 {
        opacity: .2;
      }

      .cls-15 {
        fill: #c3bff1;
      }

      .cls-16 {
        fill: #00b894;
      }

      .cls-4 {
        opacity: .1;
      }

      .cls-17 {
        fill: #b35341;
      }

      .cls-18 {
        fill: #e28b6d;
      }

      .cls-5 {
        opacity: .15;
      }

      .cls-19 {
        fill: #13805a;
      }

      .cls-13 {
        stroke: #e28b6d;
        stroke-miterlimit: 10;
        stroke-width: 2.5px;
      }

      .cls-20 {
        fill: #102048;
      }

      .cls-21 {
        fill: #fb7c82;
      }

      .cls-9 {
        fill: #ee6f57;
      }

      .cls-22 {
        fill: #a29bfe;
      }

      .cls-23 {
        fill: #fbc343;
      }

      .cls-24 {
        fill: #7670bc;
      }

      .cls-10 {
        opacity: .5;
      }

      .cls-25 {
        fill: #535ba7;
      }

      .cls-26 {
        fill: #d3dfff;
      }

      .cls-27 {
        fill: #f9b384;
      }

      .cls-28 {
        fill: #021946;
      }
    </style>
  </defs>
  <g id="Layer_1-2" data-name="Layer 1">
    <circle class="cls-25" cx="255.28" cy="10" r="10"/>
    <path class="cls-25" d="m276.28,40.2c0,8.95-9.4,7.75-21,7.75s-21,1.2-21-7.75,9.4-16.2,21-16.2,21,7.25,21,16.2Z"/>
    <path class="cls-22" d="m214.78,112.15h79c11.05,0,20,8.95,20,20h0c0,11.05-8.95,20-20,20h-79c-11.05,0-20-8.95-20-20h0c0-11.05,8.95-20,20-20Z"/>
    <rect class="cls-14" x="215.78" y="130.15" width="76" height="6"/>
    <path class="cls-12" d="m215.78,61.48h79c10.77,0,19.5,8.73,19.5,19.5h0c0,10.77-8.73,19.5-19.5,19.5h-79c-10.77,0-19.5-8.73-19.5-19.5h0c0-10.77,8.73-19.5,19.5-19.5Z"/>
    <path class="cls-22" d="m234.93,84.62h-5.72v-1.78h5.72v1.78Zm6.63,0h-5.72v-1.78h5.72v1.78Zm6.63,0h-5.72v-1.78h5.72v1.78Zm6.63,0h-5.72v-1.78h5.72v1.78Zm6.63,0h-5.72v-1.78h5.72v1.78Zm6.63,0h-5.72v-1.78h5.72v1.78Zm6.63,0h-5.72v-1.78h5.72v1.78Zm6.63,0h-5.72v-1.78h5.72v1.78Z"/>
    <g>
      <path class="cls-5" d="m20.57,345.86c11.36,0,20.57-1.75,20.57-3.91s-9.21-3.92-20.57-3.92-20.57,1.75-20.57,3.92,9.21,3.91,20.57,3.91Z"/>
      <path class="cls-1" d="m14.81,341.36h11.71c.93,0,1.82-.35,2.51-.97.69-.62,1.12-1.48,1.21-2.4l2.91-29.24H8.66l.54,6.52c-4.16.27-7.47,3.81-7.47,8.12s4.7,10.59,9.05,10.91l.3,3.63c.08.93.5,1.81,1.19,2.44.69.64,1.59.99,2.53.99Zm-5.38-23.39l1.13,13.58c-2.65-.61-6.12-5.08-6.12-8.16,0-2.9,2.21-5.27,4.99-5.42Z"/>
      <path class="cls-26" d="m11.5,273.77c-.82,2.74-1.19,5.57-.72,8.29.23,1.35.62,2.68,1.15,3.94.56,1.27,1.24,2.48,2.02,3.63.8,1.15,1.68,2.25,2.63,3.29.23.25.48.56.73.87.25.31.51.59.74.91l.65,1c.2.35.38.71.54,1.08.17.37.31.76.4,1.15.12.4.19.81.22,1.23.03.21.03.42,0,.63l-.04.63c-.03.22-.09.41-.13.62-.04.21-.1.41-.18.6l-.24.57c-.1.18-.2.36-.3.53-.1.18-.21.34-.34.5-.11.16-.24.32-.38.46-.52.6-1.15,1.1-1.84,1.48l-.45-.72c1-.88,1.82-2.07,2.1-3.29.05-.15.07-.3.08-.46.02-.16.05-.31.05-.46l-.02-.46c0-.16-.01-.31-.05-.46-.04-.31-.12-.61-.23-.91-.09-.3-.22-.59-.37-.87-.15-.29-.31-.57-.49-.85l-.58-.81c-.22-.26-.45-.51-.68-.76l-.72-.78c-.51-.55-1.03-1.1-1.5-1.7-.49-.58-.94-1.19-1.37-1.82-.86-1.27-1.58-2.63-2.15-4.06-.56-1.44-.92-2.96-1.07-4.5-.32-3.09.42-6.19,1.77-8.84l.77.31Z"/>
      <path class="cls-26" d="m22.14,272.94c1.58,1.28,2.74,3.01,3.33,4.96.29.99.43,2.02.43,3.05,0,1.02-.13,2.04-.35,3.03-.24.97-.55,1.92-.95,2.84l-.26.63c-.08.2-.17.39-.23.59l-.15.58c-.06.2-.07.39-.11.58-.03.19-.04.38-.04.57,0,.18.01.37.05.55.03.18.07.36.13.53.07.17.15.33.25.49.38.65,1.1,1.18,1.85,1.51l-.17.83c-1.1-.11-2.12-.61-2.88-1.42-.19-.22-.36-.45-.52-.7-.14-.26-.26-.53-.35-.8-.09-.28-.15-.56-.18-.85-.04-.28-.06-.56-.04-.84,0-.28.02-.55.07-.82l.16-.79c.07-.26.16-.5.24-.75.08-.25.16-.51.24-.7.32-.83.59-1.68.8-2.54.2-.85.33-1.71.39-2.58.04-.86-.02-1.72-.17-2.57-.3-1.7-1.1-3.3-2.15-4.82l.61-.56Z"/>
      <path class="cls-5" d="m332.98,347.77c22.72,0,41.13-2.73,41.13-6.09s-18.41-6.09-41.13-6.09-41.13,2.73-41.13,6.09,18.42,6.09,41.13,6.09Z"/>
      <path class="cls-19" d="m335.6,242.52h-5.77v56.46h5.77v-56.46Z"/>
      <path class="cls-16" d="m334.16,238.73c-.06,3.26-.32,6.51-.77,9.74-.24,1.71-.45,2.7-.45,2.7-15.76-5.12-22.99-14.88-26-24.74-.28-.9-.52-1.8-.72-2.7-3.18-13.71,1.08-26.77,1.08-26.77,7.23,1.52,12.56,4.66,16.49,8.71.67.69,1.3,1.41,1.89,2.15,7.26,9.11,8.65,21.66,8.48,30.91Z"/>
      <path class="cls-16" d="m354.59,211.44c-.31,10.96-4.58,23.73-17.81,35.99-1.01.94-2.09,1.88-3.21,2.81-.12.1-.24.2-.36.3,0,0-2.19-3.21-4.45-8.44-.03-.08-.06-.15-.09-.22-.87-2.03-1.64-4.11-2.29-6.23-.61-1.96-1.11-3.95-1.52-5.96-1.59-8.07-1.6-17.64,2.81-27.11,3.3-7.13,9.09-14.2,18.6-20.55-.01,0,8.8,12.58,8.31,29.4Z"/>
      <path class="cls-10" d="m336.78,247.43c-1.01.94-2.08,1.88-3.21,2.81-.12.1-.24.2-.36.3,0,0-2.19-3.21-4.45-8.44-.03-.07-.06-.15-.09-.22-.19-.44-.38-.91-.57-1.38-.07-.18-.15-.37-.22-.56-.12-.32-.25-.63-.37-.96-.1-.26-.19-.53-.28-.79-.09-.27-.2-.55-.3-.83-.19-.55-.37-1.12-.55-1.7-.61-1.96-1.11-3.95-1.51-5.96-1.3-6.58-1.54-14.16.81-21.86-.59-.74-1.22-1.45-1.89-2.15-1.52,4-3.98,13.18-4.28,21.45-3.64-1.43-8.02-2.6-13.3-3.39.22.9.43,1.8.73,2.7-2.25-.54-4.68-1-7.3-1.4,2.07,7.07,10.39,29.58,32.08,29.91.55.01,1.11,0,1.68-.01.89-.03,1.81-.1,2.75-.22,0,0,.98-3.07.64-7.3Z"/>
      <path class="cls-16" d="m333.53,253.76s0,.04,0,.05c0,.14-.02.27-.04.39-.01.06-.02.12-.02.18-.01.1-.02.2-.04.3-.04.3-.08.57-.12.84-.03.17-.06.34-.09.5-.14.79-.35,1.56-.61,2.32-1.48.1-2.96.1-4.43,0-25.68-1.73-30.96-33.64-30.96-33.64.83.1,1.63.22,2.42.34,2.62.39,5.06.85,7.3,1.4,9.28,2.21,15.42,5.54,19.45,9.21,1.13,1.03,2.17,2.17,3.08,3.39,2.08,2.77,3.42,6.01,3.92,9.43.09.61.15,1.2.19,1.77.08,1.17.06,2.34-.05,3.51Z"/>
      <path class="cls-7" d="m354.59,211.43c-.17,6.05-1.56,12-4.07,17.51-2.75,6.1-7.13,12.35-13.74,18.48-.03.02-.05.05-.08.07-.39.36-.79.73-1.2,1.08-.12.11-.24.22-.36.32-.51.45-1.03.89-1.57,1.34-.04-.57-.1-1.16-.19-1.77-.5-3.42-1.84-6.66-3.92-9.43-.92-1.23-1.95-2.36-3.08-3.39-.61-1.96-1.11-3.95-1.52-5.96,1.37.79,2.67,1.69,3.9,2.7.76.63,1.49,1.31,2.17,2.02,3.4-8.84,10.21-17.9,23.66-22.98Z"/>
      <path class="cls-8" d="m333.53,253.76s0,.04,0,.05c0,.14-.02.27-.04.39-.01.06-.02.12-.02.18-.01.1-.02.2-.04.3-.04.3-.08.57-.12.84-.03.17-.06.34-.09.5-.14.79-.35,1.56-.61,2.32-1.48.1-2.96.1-4.43,0-.24-1.77-.92-8.36.61-16.23.19-1,.43-2.02.7-3.06,2.07,2.77,3.42,6.01,3.92,9.43.09.61.15,1.2.19,1.77.07,1.17.05,2.34-.05,3.51Z"/>
      <path class="cls-23" d="m358.24,291.76l-6.35,41.56c-.34,2.24-1.48,4.29-3.2,5.76s-3.91,2.29-6.18,2.29h-19.05c-2.27,0-4.46-.82-6.18-2.29-1.72-1.48-2.86-3.52-3.2-5.76l-6.35-41.56h50.51Z"/>
      <path class="cls-16" d="m331.93,258.39s-6.96-41.24,37.28-47.18c0,0,2.78,45.19-37.28,47.18Z"/>
      <path class="cls-6" d="m358.24,291.76l-6.35,41.56c-.34,2.24-1.48,4.29-3.2,5.76s-3.91,2.29-6.18,2.29h-19.05c-2,0-3.94-.63-5.56-1.8-1.62-1.17-2.82-2.82-3.45-4.72,24.75-3.96,31.39-29.44,32.73-43.07h11.06Z"/>
      <path class="cls-5" d="m266.26,342.18c0-5.07-45.22-9.19-100.99-9.19s-100.99,4.11-100.99,9.19c0,4.11,29.75,7.6,70.75,8.77,4.47,7.32-2.99,16.08-8.7,19.24-10.03.5-17.23,1.62-16.1,4,5.36,11.26,50.92-.72,50.92-.72,0,0,17.81,1.11,17.81-.59,0-.78-3.14-1.49-8.3-2.03l.38-.02-19.23-19.54c4.4.06,8.89.08,13.46.08,55.78,0,100.99-4.11,100.99-9.19Z"/>
      <path class="cls-21" d="m275.18,274.69c-1.33,21.96-12.4,43.91-30.56,55.99-21.64,14.4-51.89,11.21-76.53,13.05-21.3,1.59-42.77,2.95-64.08.68-17.46-1.86-35.07-8.78-43.41-25.72-8.36-16.99-9.26-39.56-.9-56.75,2.65-5.41,6.17-10.35,10.42-14.62.68-.7,1.39-1.38,2.11-2.04.49-.45.98-.89,1.48-1.32.77-.67,1.56-1.32,2.36-1.95.27-.22.53-.41.8-.61.27-.2.54-.41.81-.61.27-.2.54-.4.82-.6l.62-.43c.34-.25.69-.48,1.04-.71,3.11-2.09,6.38-3.94,9.77-5.53,3.27-1.54,6.64-2.85,10.09-3.92,11.21-3.48,22.92-4.71,34.48-6.23,24.54-3.22,49.53-4.33,74.27-4.3,20.19,0,42.92,3.03,56.42,20.35,7.63,9.78,10.76,22.78,9.99,35.3Z"/>
      <path class="cls-27" d="m233.63,237.59s5.2-4.89,7.97-7.72c2.77-2.83-3.26-2.92-6.23.6-2.97,3.53-1.74,7.12-1.74,7.12Z"/>
      <path class="cls-17" d="m89.94,233.5c-3.4,1.59-6.66,3.44-9.77,5.53-.35.23-.7.47-1.04.71l-.62.43c-.27.19-.55.4-.82.6-.27.2-.54.4-.81.61-.27.21-.53.41-.8.61-.79.63-1.56,1.27-2.33,1.93l-.03.02c-.5.43-1,.87-1.48,1.32-.72.66-1.43,1.35-2.11,2.05.02.29.13.57.32.8.19.22.44.38.73.45,4.06.82,6.1,4.7,9.37,6.9,2.43,1.63,5.3,2.08,8.05,1.15-2.96,6.28-4.59,12.49-3.31,19.5.39,2.12,1.06,4.18,1.98,6.14-3.8-2.81-7.47-8.88-8.98-15.01-.1-.42-.37-.78-.74-1-.37-.22-.81-.29-1.23-.19-.42.1-.78.37-1,.74-.22.37-.29.81-.19,1.23,1.87,7.6,6.62,14.9,11.55,17.75,1.1.64,2.3,1.08,3.55,1.3.98,1.26,2.07,2.42,3.27,3.46l7.3,2.04,5.95-38.42-16.82-20.64Z"/>
      <path class="cls-24" d="m111.08,259.3c-15.08-5.88-25.56-12.12-31.64-16.28-1.93-1.32-3.44-3.17-4.34-5.33-.91-2.15-1.18-4.52-.78-6.83l7.78-45.33c.39-2.3,1.35-4.46,2.79-6.3,1.44-1.83,3.32-3.28,5.46-4.2,11.29-4.85,23.18-8.18,35.36-9.89,4.55-.28,9.12-.19,13.66.27,5.04.5,16.58,3.9,23.91,6.18,2.05.63,3.92,1.72,5.49,3.19,1.57,1.46,2.78,3.26,3.55,5.26,3.08,7.93,8.07,21.31,9.67,28.54,5.5,24.98,4.6,23.13,4.6,23.13l5.68,38.42-60.35,3.38-15.43-7.03-5.42-7.17Z"/>
      <path class="cls-20" d="m148.44,121.99s-5.35-10.96-19.55-5.95c-10.28-2.23-18.13,9.94-10.55,26.51l14.27,3.32,15.83-23.88Z"/>
      <path class="cls-27" d="m140.86,152.97v19.38c0,2.18-.87,4.27-2.41,5.82-1.54,1.54-3.64,2.41-5.82,2.41-2.95,0-5.78-1.17-7.87-3.26-2.09-2.09-3.26-4.92-3.26-7.87v-16.48h19.36Z"/>
      <path class="cls-18" d="m140.86,161.01v10.57c-8.62.04-14.34-11.1-14.34-11.1l14.34.53Z"/>
      <path class="cls-27" d="m149.38,150.54c-.52,2.68-1.26,5.43-2.33,7.85-1.86,4.25-4.7,7.48-9.04,7.58-10.16.22-17.99-13.66-17.99-13.66l1.62-18.94,7.71-8.66,21.25,13.12c-.03,4.27-.44,8.52-1.22,12.72Z"/>
      <path class="cls-20" d="m121.3,146.75s2.1-8.52,9.4-14.07c0,0,10.62,13.87,21.85,7.17,11.23-6.7,6.36-19.88-4.13-17.86l-12.04-1.35-15.09,4.8-2.57,11.84,2.57,9.47Z"/>
      <path class="cls-3" d="m131.96,244.97c-10.23-22.11-23.13-11.56-26.29-19.67-4.42-11.37-3.58-24.24-3.61-28.14l-6.16,34.7s13.76,1.3,18.85,9.59l17.21,3.52Z"/>
      <path class="cls-2" d="m102.38,196.57c-.38,2.97-.83,5.93-1.3,8.87-.46,2.95-.99,5.9-1.48,8.85-.49,2.95-1.05,5.89-1.63,8.82l-.88,4.4c-.32,1.46-.61,2.93-.96,4.38l-.45-.08c.18-1.49.4-2.97.6-4.45l.68-4.44c.46-2.95.96-5.9,1.5-8.84.55-2.94,1.06-5.89,1.65-8.82.59-2.93,1.16-5.87,1.82-8.79l.44.08Z"/>
      <path class="cls-2" d="m162.17,191.08c.82,3.85,1.58,7.72,2.32,11.59.74,3.87,1.43,7.75,2.15,11.62.72,3.88,1.36,7.76,2.01,11.64l.94,5.84c.29,1.95.6,3.9.87,5.84l-.42.07c-.43-1.92-.8-3.86-1.2-5.79l-1.13-5.8c-.73-3.87-1.44-7.74-2.14-11.62-.66-3.88-1.37-7.76-2-11.65-.63-3.89-1.27-7.78-1.83-11.68l.42-.08Z"/>
      <path class="cls-3" d="m165.03,208.97c.72,7.03-.36,43.47-17.32,44.01l.18,7.94,26.7-1.62-9.56-50.32Z"/>
      <path class="cls-18" d="m130.16,251.99c12.04-5.14,14.34-4.95,15.97-4.87,5.55.27,13.53,11.36,13.53,11.36l-.13,2.03h-30.44l1.08-8.52Z"/>
      <path class="cls-14" d="m176.48,258.53h-37.48v5.68h37.48v-5.68Z"/>
      <path class="cls-23" d="m227.45,264.22h-65.13l14.61-58.19h65.13l-14.61,58.19Z"/>
      <path class="cls-11" d="m233.35,240.42c-6.44-.96-27.28-5.29-70.21,20.86l-.99,3.61,65.31-.67,5.9-23.8Z"/>
      <path class="cls-27" d="m234.58,253.35c-.41,2.74-.54,6.76-9.03,6.26l-2.5-1.29,2.37-2.6,5.11-2.6,4.06.22Z"/>
      <path class="cls-27" d="m235.38,245.95s4.65,6.06-.02,7.94c-3.17,1.23-6.54,1.85-9.95,1.83,2.17-6.09,9.2-5.68,9.2-5.68l.77-4.08Z"/>
      <path class="cls-27" d="m235.52,242.03s6.4,5.95.45,7.62c-8.41,2.36-11,2.52-11,2.52-.45-4.46,7.89-7.36,7.89-7.36l2.66-2.79Z"/>
      <path class="cls-27" d="m234.21,236.84s8.75,5.32.54,8.3c-8.21,2.98-10.15,2.93-10.15,2.93-.45-4.46,8.35-6,8.35-6l1.26-5.23Z"/>
      <path class="cls-13" d="m224.6,248.07s9.54-1.35,12.38-3.65"/>
      <path class="cls-13" d="m224.96,252.17s9.92-1.4,13.04-3.56"/>
      <path class="cls-13" d="m225.41,255.71s5.89.2,9.2-1.42"/>
      <path class="cls-20" d="m133,341c.99-.54,16.69,2.88,34.1-10.01l-22.46-6.4-11.64,16.41Z"/>
      <path class="cls-17" d="m232.73,266.52c.75-1.07,1.39-2.63.45-3.53-.98-.94-2.58-.12-3.61.77-1.79,1.56-3.46,3.26-4.98,5.09l-37.92,7.04-51.96,12.63,8.93,11.4c25.98,1.89,40.77,2.38,57.03-.49,8.29-1.46,15.69-2.97,21.22-7.47,1.31-1.08,2.56-2.89,1.7-4.35-.58-.99-1.78-1.25-2.99-1.24,2.77-.65,5.47-1.61,8.03-2.86,1.14-.55,2.41-1.42,2.38-2.68-.02-.91-.75-1.68-1.6-2-.84-.33-1.77-.3-2.68-.23-3.46.27-6.87,1.02-10.12,2.25,5.91-4.14,11.93-8.42,16.1-14.31Zm-16.19,14.36s0-.02.02-.03c.02,0,.04-.01.05-.02-.02.01-.05.03-.07.05Z"/>
      <path class="cls-15" d="m171.04,370.83c-2.74.77-6.62.96-11.97.11,0,0-6.93,1.8-13.75,3.21-4.62.96-9.18,1.73-11.51,1.66-.2,0-.4-.02-.61-.03-4.48-.32-10.12-2.65-13.11-5.98,0,0-.01-.02-.02-.03-.8-.86-1.4-1.87-1.78-2.97-1.62-5.05,1.81-11.18,20.39-9.92,0,0,6.13-1.44,7.58-5.95s-9.2-26.15-9.2-26.15l15.15-10.28,14.88,16.5s2.26,14.88,2.26,19.75c0,0,6.31,9.02,7.21,12.99.58,2.53-.69,5.73-5.53,7.1Z"/>
      <path class="cls-2" d="m85.84,233.79c1.73-.67,3.5-1.21,5.29-1.71.9-.25,1.8-.47,2.71-.65.46-.09.92-.17,1.39-.24.24-.03.47-.06.71-.08.25-.01.51,0,.76.01,1.95.22,3.71.82,5.46,1.46,1.75.65,3.45,1.4,5.12,2.21,1.67.81,3.31,1.68,4.92,2.6,1.61.92,3.19,1.9,4.72,2.94,3.05,2.11,5.99,4.42,8.52,7.14l-.32.32c-1.36-1.23-2.78-2.39-4.25-3.48-1.46-1.1-2.97-2.14-4.52-3.12-3.08-1.98-6.28-3.78-9.57-5.39-1.64-.81-3.31-1.56-5.01-2.23-1.7-.63-3.43-1.31-5.16-1.54-.21-.03-.41-.04-.62-.04-.22,0-.43.03-.65.05-.45.05-.89.11-1.34.19-.9.16-1.79.34-2.69.54-1.79.41-3.57.88-5.32,1.42l-.16-.41Z"/>
      <path class="cls-17" d="m94.85,304.61c6.09-.41,12.07.03,16.42-1.49,4.65-1.62,16.78-.54,16.78-.54l-6.67-9.6-27.06,6.77.53,4.87Z"/>
      <path class="cls-28" d="m95.12,286.89c-6.22-10.01-6.22-29.76,1.62-38.69,8.97-10.2,28.14-14.07,38.16-2.16,10.01,11.9,28.41,55.46,32.2,84.95,0,0-20.3-6.76-34.1,10.01,0,0-18.13-41.39-21.92-56.55l-10.28,8.12-5.68-5.68Z"/>
      <path class="cls-15" d="m111.08,284.46s-2.71-.99-6.49,1.53c0,0-29.59-.63-36.17,6.04-6.58,6.67-1.53,15.6,8.12,16.6,8.1.83,23.81-5.45,28.67-7.49.98-.42,2.03-.66,3.1-.73l8.01-.52-5.23-15.42Z"/>
      <path class="cls-27" d="m122.89,147.3s-1.99-6.58-6.35-4.93c-4.37,1.64-2.04,10.2,6.58,12.58l-.22-7.65Z"/>
      <path class="cls-2" d="m118.25,183.55c2.13,1.53,4.44,2.79,6.89,3.75,2.43.91,5,1.49,7.58,1.43,2.58-.03,5.11-.66,7.41-1.84l.87-.43c.28-.16.54-.35.82-.53.55-.34,1.08-.72,1.58-1.14l.76-.62.38-.31c.13-.11.23-.22.35-.34.46-.46.93-.92,1.4-1.38l.32.27c-.43.51-.87,1.03-1.3,1.53-.11.13-.22.26-.33.38l-.37.35-.74.7c-.49.46-1.02.88-1.58,1.26-.28.2-.54.41-.83.59l-.89.51c-2.4,1.34-5.1,2.06-7.84,2.08-2.73,0-5.43-.57-7.93-1.65-2.47-1.06-4.77-2.5-6.8-4.27l.26-.34Z"/>
      <path class="cls-20" d="m106.6,267.19l2.35,8.2c.8,2.73,1.54,5.47,2.38,8.19.84,2.72,1.63,5.44,2.49,8.15.43,1.35.85,2.71,1.32,4.05.22.67.43,1.35.68,2.02.25.67.48,1.34.71,2.01l-.39.17c-.6-1.3-1.17-2.61-1.7-3.93-.53-1.33-1.02-2.67-1.52-4.01-.96-2.69-1.81-5.41-2.62-8.14-.81-2.73-1.55-5.49-2.23-8.26-.68-2.77-1.33-5.54-1.88-8.34l.42-.1Z"/>
      <path class="cls-4" d="m171.04,370.83c-2.74.78-6.62.96-11.97.11,0,0-11.46,2.93-18.7,4.08,7.44-1.49,18.27-10.69,17.05-16.5,10.69,3.52,13.6,8.86,13.62,12.31Z"/>
      <path class="cls-3" d="m142.27,371.85c-1.38,1.7-3.44,2.85-5.6,3.43-1.13.3-2.29.47-3.46.5-4.48-.32-10.12-2.65-13.11-5.99,0,0-.01-.02-.02-.03-.32-.43-.61-.88-.87-1.35,1.55,1.45,3.3,2.67,5.19,3.62.93.46,1.89.85,2.88,1.17.48.18.99.29,1.48.43.5.13,1,.23,1.51.3,4.02.68,8.32.26,11.99-2.1Z"/>
      <path class="cls-18" d="m120.94,148.23c-.12-.59-.36-1.15-.71-1.65-.32-.5-.72-.94-1.19-1.3-.46-.32-.96-.48-1.38-.26-.42.23-.79.76-1.1,1.3l-.3-.1c.13-.65.36-1.35,1.04-1.81.35-.23.77-.32,1.18-.24.38.07.73.23,1.04.45.56.42,1.01.97,1.32,1.6.34.61.49,1.3.43,2h-.33Z"/>
      <path class="cls-20" d="m146.69,148.07c-.19.93-.89,1.58-1.57,1.44-.68-.14-1.07-1.01-.88-1.95.19-.94.89-1.58,1.57-1.44.68.14,1.07,1.01.88,1.95Z"/>
      <path class="cls-20" d="m136.14,147.65c.15-.94-.27-1.79-.96-1.9-.68-.11-1.36.56-1.51,1.5s.27,1.79.96,1.9c.68.11,1.36-.56,1.51-1.5Z"/>
      <path class="cls-18" d="m140.62,148.93c.07.77.1,1.53.1,2.28.04.3.18.58.4.79.28.28.55.58.79.9.13.2.23.42.28.65.05.23.07.46.05.69-.04.46-.21.9-.5,1.26-.15.18-.34.33-.56.43-.22.1-.45.15-.69.15-.43-.03-.84-.18-1.19-.43l.15-.28c.32.13.67.18,1.01.14.15-.02.28-.07.41-.15.12-.08.23-.19.31-.31.33-.49.38-1.26.06-1.73-.17-.27-.43-.52-.71-.85-.31-.35-.49-.8-.5-1.27.06-.79.15-1.56.27-2.32l.32.05Z"/>
      <path class="cls-20" d="m131.9,144.4c.44-.44.95-.79,1.52-1.04.59-.27,1.24-.39,1.88-.36.66.04,1.29.27,1.82.67.5.38.92.86,1.22,1.41l-.25.19c-.41-.38-.86-.72-1.33-1.01-.46-.26-.97-.42-1.49-.46-1.05-.08-2.12.34-3.16.85l-.2-.25Z"/>
      <path class="cls-20" d="m142.91,145.33c.21-.57.63-1.04,1.18-1.3.54-.27,1.13-.4,1.73-.39.6,0,1.19.17,1.71.47.52.3.93.75,1.17,1.3l-.27.17c-.7-.7-1.64-1.11-2.63-1.13-.96-.02-1.97.24-2.6,1.02l-.3-.15Z"/>
      <path class="cls-14" d="m135.52,158.03l7.18.51s-4,5.31-7.18-.51Z"/>
      <path class="cls-9" d="m149.38,150.53c-.52,2.68-1.26,5.43-2.33,7.85-.85-.4-1.54-1.08-1.95-1.93-.41-.85-.52-1.81-.32-2.73.21-.92.72-1.74,1.46-2.33.74-.59,1.65-.91,2.59-.91.18,0,.37.01.55.04Z"/>
      <path class="cls-9" d="m132.72,157.51c2.11-.89,3.11-3.32,2.22-5.43-.89-2.11-3.32-3.11-5.43-2.22-2.11.89-3.11,3.32-2.22,5.43.89,2.11,3.32,3.11,5.43,2.22Z"/>
    </g>
  </g>
</svg>