<svg width="32" height="32" viewBox="0 0 20 20" fill="none" xmlns="http://www.w3.org/2000/svg">
<path fill-rule="evenodd" clip-rule="evenodd" d="M0 1.3171C0 0.628503 0.379086 -0.542107 1.89543 0.284206L4.13548 1.87657C5.88732 0.556765 10.6144 -1.334 15.5081 1.66138C17.2025 2.70862 20.462 6.05117 19.9451 11.0435C19.7297 13.5683 17.662 18.8848 11.1141 19.9522C8.18481 20.2534 2.70529 19.2722 0.430779 12.9371C0.287186 12.392 0 11.1898 0 10.7422V1.3171ZM7.54116 14.5993C7.91191 14.9609 8.40418 15.1217 8.88303 15.0834C9.3587 15.1165 9.84576 14.9533 10.2122 14.5928L15.986 8.91326C16.6641 8.2462 16.6726 7.15625 16.0049 6.47878C15.3372 5.80131 14.2462 5.79286 13.5681 6.45991L8.86874 11.0826L6.32994 8.60659C5.64896 7.94245 4.55802 7.95559 3.89326 8.63592C3.22849 9.31625 3.24164 10.4062 3.92261 11.0703L7.54116 14.5993Z" fill="#6BAAEB"/>
</svg>
