<svg width="32" height="32" viewBox="0 0 20 20" fill="none" xmlns="http://www.w3.org/2000/svg">
<path d="M5.8 0H14.2C15.7379 0.00110364 17.2125 0.612528 18.3 1.7C19.3875 2.78747 19.9989 4.26208 20 5.8V14.2C20 14.9617 19.85 15.7159 19.5585 16.4196C19.267 17.1233 18.8398 17.7626 18.3012 18.3012C17.7626 18.8398 17.1233 19.267 16.4196 19.5585C15.7159 19.85 14.9617 20 14.2 20H5.8C4.26208 19.9989 2.78747 19.3875 1.7 18.3C0.612528 17.2125 0.00110364 15.7379 0 14.2V5.8C0 4.26174 0.61107 2.78649 1.69878 1.69878C2.78649 0.61107 4.26174 0 5.8 0V0ZM5.6 2C4.64522 2 3.72955 2.37928 3.05442 3.05442C2.37928 3.72955 2 4.64522 2 5.6V14.4C1.99967 14.8729 2.09256 15.3411 2.27336 15.778C2.45416 16.215 2.71933 16.612 3.05368 16.9463C3.38804 17.2807 3.78503 17.5458 4.22195 17.7266C4.65887 17.9074 5.12715 18.0003 5.6 18H14.4C15.3548 18 16.2705 17.6207 16.9456 16.9456C17.6207 16.2705 18 15.3548 18 14.4V5.6C18.0003 5.12715 17.9074 4.65887 17.7266 4.22195C17.5458 3.78503 17.2807 3.38804 16.9463 3.05368C16.612 2.71933 16.215 2.45416 15.778 2.27336C15.3411 2.09256 14.8729 1.99967 14.4 2H5.6ZM15.25 3.5C15.4972 3.5 15.7389 3.57331 15.9445 3.71066C16.15 3.84801 16.3102 4.04324 16.4048 4.27165C16.4995 4.50005 16.5242 4.75139 16.476 4.99386C16.4277 5.23634 16.3087 5.45907 16.1339 5.63388C15.9591 5.8087 15.7363 5.92775 15.4939 5.97598C15.2514 6.02421 15.0001 5.99946 14.7716 5.90485C14.5432 5.81024 14.348 5.65002 14.2107 5.44446C14.0733 5.2389 14 4.99723 14 4.75C14 4.41848 14.1317 4.10054 14.3661 3.86612C14.6005 3.6317 14.9185 3.5 15.25 3.5V3.5ZM10 5C10.9889 5 11.9556 5.29325 12.7779 5.84265C13.6001 6.39206 14.241 7.17295 14.6194 8.08658C14.9978 9.00021 15.0969 10.0055 14.9039 10.9755C14.711 11.9454 14.2348 12.8363 13.5355 13.5355C12.8363 14.2348 11.9454 14.711 10.9755 14.9039C10.0055 15.0969 9.00021 14.9978 8.08658 14.6194C7.17295 14.241 6.39206 13.6001 5.84265 12.7779C5.29325 11.9556 5 10.9889 5 10C5 8.67392 5.52678 7.40215 6.46447 6.46447C7.40215 5.52678 8.67392 5 10 5V5ZM10 7C9.40666 7 8.82664 7.17595 8.33329 7.50559C7.83994 7.83523 7.45542 8.30377 7.22836 8.85195C7.0013 9.40013 6.94189 10.0033 7.05764 10.5853C7.1734 11.1672 7.45912 11.7018 7.87868 12.1213C8.29824 12.5409 8.83279 12.8266 9.41473 12.9424C9.99667 13.0581 10.5999 12.9987 11.1481 12.7716C11.6962 12.5446 12.1648 12.1601 12.4944 11.6667C12.8241 11.1734 13 10.5933 13 10C13 9.20435 12.6839 8.44129 12.1213 7.87868C11.5587 7.31607 10.7956 7 10 7V7Z" fill="#6BAAEB"/>
</svg>
