<svg width="32" height="32" viewBox="0 0 20 21" fill="none" xmlns="http://www.w3.org/2000/svg">
<path fill-rule="evenodd" clip-rule="evenodd" d="M10.004 1.80996e-05C9.37931 0.0219227 8.80032 0.284279 8.26255 0.57094L7.62581 0.916461L7.6258 0.916469C6.76009 1.38613 5.89433 1.85582 5.03125 2.32949C5.62053 2.64543 6.21119 2.95914 6.80182 3.27282L6.80186 3.27285L6.8019 3.27287L6.80195 3.27289L6.80199 3.27291L6.80238 3.27312L6.80244 3.27315C7.19208 3.48009 7.5817 3.68702 7.9709 3.89458C8.22839 4.03433 8.48789 4.17082 8.74738 4.30731C9.16456 4.52674 9.58173 4.74617 9.99056 4.97912L9.99661 4.97621L9.99662 4.97613C10.165 4.87272 10.341 4.78114 10.5169 4.68957C10.6201 4.63588 10.7233 4.5822 10.8249 4.52614C11.3338 4.25609 11.8422 3.98535 12.3507 3.7146L12.3511 3.71438C13.223 3.25014 14.0949 2.7859 14.9686 2.32514C14.3341 1.96769 13.6925 1.62019 13.0509 1.2727L13.0509 1.27268L13.0509 1.27267C12.7042 1.08489 12.3575 0.897115 12.012 0.707776L11.916 0.656834C11.3217 0.340903 10.6989 0.00980841 10.0046 8.12873e-06V0L10.0044 5.16452e-06L10.004 0V1.80996e-05ZM14.9683 2.32593L14.9826 2.3194L14.9931 2.33155L14.9931 2.33069C16.0811 2.92304 17.1645 3.52338 18.2445 4.1288C18.7851 4.42498 19.3627 4.75056 19.6585 5.30008C18.9155 5.69743 18.1714 6.09277 17.4272 6.4881C16.6222 6.91577 15.8172 7.34345 15.0136 7.77367L14.9868 7.75762L14.9868 7.75796L15.0136 7.774L15.0141 7.77431C15.8176 7.34414 16.6225 6.91652 17.4274 6.48891L17.4278 6.48872C18.1718 6.09346 18.9158 5.69821 19.6586 5.30095C19.8882 5.70965 19.9575 6.17859 19.9961 6.63375C19.9977 7.35872 19.9976 8.08381 19.9974 8.80895C19.9972 9.3978 19.9971 9.98669 19.9979 10.5756L19.998 10.5756C19.9971 11.2849 19.9972 11.9943 19.9973 12.7036V12.7074C19.9974 13.1144 19.9974 13.5213 19.9973 13.9282C20.0071 14.5652 19.9523 15.2418 19.5997 15.7997C18.8337 15.3743 18.0696 14.9459 17.3055 14.5175L17.3051 14.5173L17.3042 14.5167C16.7511 14.2066 16.1979 13.8964 15.644 13.5874C15.5615 13.543 15.4802 13.4966 15.3989 13.4503L15.3989 13.4503L15.3988 13.4503L15.3988 13.4503L15.3988 13.4503L15.3988 13.4503L15.3988 13.4503C15.2611 13.3719 15.1234 13.2935 14.9805 13.2241L14.9871 13.2213L14.9873 11.6612V11.6612V11.6612V11.6612V11.6611V11.6611V11.6611V11.6611V11.661V11.661C14.9876 10.3602 14.9879 9.05955 14.9863 7.75903L14.9686 7.76964C14.2064 7.3377 13.4412 6.91053 12.6761 6.48338L12.676 6.48335L12.6759 6.48331L12.6759 6.48327L12.6758 6.48324L12.6757 6.4832L12.6757 6.48316L12.6756 6.48312L12.6755 6.48309L12.6755 6.48305L12.6754 6.48301L12.6753 6.48298L12.6753 6.48294L12.6752 6.4829L12.6752 6.48286L12.6751 6.48283C11.7805 5.9834 10.8859 5.484 9.99609 4.97701C10.1645 4.87357 10.3405 4.78197 10.5166 4.69037C10.6197 4.63668 10.7229 4.583 10.8245 4.52694C11.3335 4.25684 11.842 3.98606 12.3506 3.71527L12.3507 3.7152C13.2226 3.25095 14.0945 2.78671 14.9683 2.32593ZM4.62988 2.54486L4.6298 2.54491C3.63637 3.08943 2.64283 3.63402 1.65557 4.18836C1.14829 4.46349 0.644416 4.80177 0.353516 5.29939L0.354356 5.29985C0.200729 5.55338 0.133098 5.84489 0.0783028 6.13062C0.000946038 6.59177 0.00197233 7.0588 0.00299647 7.52485C0.00319433 7.61488 0.0033921 7.70488 0.00302461 7.7948C0.00213291 8.15785 0.00252598 8.52096 0.00291907 8.88408C0.0035265 9.44521 0.00413346 10.0064 2.76463e-10 10.5674V10.5675L6.2259e-05 10.5674L0.0147513 10.5754L0.781179 10.9834C1.20079 11.2068 1.62037 11.4302 2.04009 11.6534C2.44836 11.8663 2.85412 12.0838 3.25986 12.3013L3.25996 12.3013C3.83727 12.6108 4.41456 12.9202 4.99903 13.2163C5.00308 11.9194 5.00231 10.6224 5.00154 9.32561V9.32529L5.00153 9.32283V9.32276V9.32269V9.32262V9.32255V9.32248V9.32241V9.32235C5.00123 8.80455 5.00092 8.28677 5.00092 7.76903L5.00508 7.76685L5.00389 7.76629C5.01943 7.75756 5.05035 7.74092 5.06582 7.73259C6.14251 7.13254 7.21789 6.53015 8.29325 5.92778L8.29359 5.92759L8.29512 5.92673L8.29664 5.92588C8.86064 5.60994 9.42464 5.29402 9.98881 4.97843C9.58007 4.74553 9.16299 4.52616 8.7459 4.30678L8.74588 4.30677L8.74586 4.30676L8.74584 4.30674L8.74582 4.30673L8.7458 4.30672L8.74578 4.30671L8.74576 4.3067L8.74574 4.30669L8.74572 4.30667L8.7457 4.30666L8.74568 4.30665L8.74566 4.30664L8.74564 4.30663L8.74554 4.30658L8.74544 4.30652L8.74534 4.30647L8.74524 4.30642L8.74514 4.30636L8.74504 4.30631L8.74494 4.30626L8.74483 4.30621L8.74483 4.3062L8.74482 4.3062L8.74481 4.30619L8.7448 4.30619L8.74479 4.30618C8.48558 4.16984 8.22637 4.0335 7.96915 3.8939C7.57987 3.68629 7.19016 3.47932 6.80044 3.27233L6.80007 3.27214C6.20945 2.95845 5.61879 2.64475 5.02951 2.32881L5 2.34115C5.00105 3.05835 5.00073 3.77549 5.00041 4.49259V4.49262V4.49264V4.49267V4.49269V4.49271V4.49274V4.49276V4.49279V4.49281V4.49284V4.49286V4.49288V4.49291C4.99993 5.58407 4.99945 6.67515 5.00378 7.76624L5.00376 7.76623C4.99943 6.67543 4.99991 5.58463 5.0004 4.49376V4.49373V4.49371V4.49369V4.49366V4.49364V4.49361V4.49359V4.49356V4.49354V4.49352V4.49349V4.49347V4.49344V4.49342C5.00072 3.77631 5.00103 3.05917 4.99998 2.34197L4.62988 2.54486ZM0.014012 10.5756L0.779376 10.983C1.19934 11.2066 1.61927 11.4302 2.03935 11.6536C2.44748 11.8664 2.8531 12.0838 3.25871 12.3012L3.25875 12.3012L3.2588 12.3013L3.25884 12.3013L3.25889 12.3013L3.25893 12.3013L3.259 12.3014L3.2591 12.3014C3.83645 12.6109 4.41378 12.9204 4.99829 13.2165L5.00692 13.2206L5.00732 13.2204L5.80823 13.6467L5.80866 13.6469L5.80909 13.6472L5.80952 13.6474L5.80995 13.6476C7.20419 14.3899 8.59847 15.1321 9.99434 15.8718L9.99512 15.8722C10.7391 15.4791 11.4818 15.0835 12.2245 14.688C13.1423 14.1991 14.0601 13.7102 14.9803 13.226C14.9903 14.2721 14.9889 15.3183 14.9875 16.3645C14.9865 17.1348 14.9855 17.905 14.989 18.6752L14.9777 18.6687C14.9774 18.6685 14.977 18.6683 14.9767 18.6681C14.6277 18.8641 14.2729 19.0514 13.9181 19.2387C13.7114 19.3479 13.5047 19.457 13.2991 19.5678C13.0172 19.7172 12.7357 19.8672 12.4543 20.0171C11.9808 20.2695 11.5073 20.5218 11.032 20.7711C10.7109 20.9137 10.3575 21.0052 10.002 21.0001C10.002 21.0001 10.002 21 10.002 21C9.57972 20.987 9.1587 20.876 8.78782 20.6825C8.39542 20.4728 8.00215 20.2644 7.60886 20.0559L7.60876 20.0559C6.74066 19.5958 5.87251 19.1357 5.01367 18.6619C5.70688 18.2772 6.39819 17.8891 7.08951 17.501L7.08961 17.5009C8.059 16.9566 9.02841 16.4124 10.0031 15.8776C10.0031 15.8776 10.0031 15.8775 10.0031 15.8774L10.0025 15.8771C9.02762 16.4119 8.05806 16.9563 7.08853 17.5006L7.08823 17.5008L7.08781 17.501C6.39649 17.8891 5.70517 18.2773 5.01195 18.6619L5.0025 18.667C5.00273 18.1103 5.002 17.5535 5.00127 16.9967L5.00127 16.9959V16.9957C4.99962 15.7378 4.99798 14.4799 5.00731 13.2223C4.99788 14.4799 4.99953 15.7379 5.00118 16.9958C5.00191 17.5529 5.00264 18.11 5.00241 18.667C4.57919 18.4338 4.15489 18.2024 3.73062 17.9711L3.73053 17.9711L3.73044 17.971L3.73035 17.971L3.73027 17.9709L3.72985 17.9707C3.28215 17.7266 2.83447 17.4825 2.38808 17.2362C2.30517 17.1903 2.22193 17.1448 2.13867 17.0993L2.13865 17.0993L2.13863 17.0992L2.13861 17.0992C1.86142 16.9477 1.584 16.7961 1.31754 16.6275C0.968495 16.4018 0.630038 16.1406 0.406469 15.793L0.406293 15.7931C0.122579 15.359 0.0541112 14.8327 0.0174176 14.3315C-0.00327251 13.7087 -0.000706178 13.085 0.00186032 12.4613C0.00332931 12.1043 0.00479836 11.7473 0.00190661 11.3904C0.00475703 11.2883 0.00325815 11.1854 0.00175941 11.0826C-0.000719868 10.9126 -0.00319876 10.7425 0.014012 10.5756ZM5.00732 13.2209V13.2208L5.00737 13.2208L5.00732 13.2209ZM15.3989 13.4523L15.3988 13.4522L15.3988 13.4522C15.2611 13.3738 15.1234 13.2954 14.9805 13.226C14.9905 14.2721 14.9891 15.3183 14.9877 16.3645C14.9867 17.1348 14.9856 17.905 14.9892 18.6752C15.5904 18.3506 16.1904 18.0235 16.7903 17.6963L17.1499 17.5003C17.3046 17.4139 17.4604 17.3291 17.6162 17.2444L17.6163 17.2443C17.9914 17.0401 18.3667 16.8359 18.7278 16.6092C19.0588 16.3874 19.3996 16.1468 19.5997 15.8016C18.8333 15.3761 18.0689 14.9474 17.3044 14.5188L17.304 14.5186C16.7509 14.2085 16.1978 13.8983 15.644 13.5894C15.5615 13.5449 15.4802 13.4986 15.3989 13.4523L15.3989 13.4523Z" fill="#6BAAEB"/>
</svg>
