<svg width="24" height="24" viewBox="0 0 24 24" fill="none" xmlns="http://www.w3.org/2000/svg">
<g id="ph:microphone">
<path id="Vector" d="M12 15.2857C13.1931 15.2845 14.337 14.8326 15.1806 14.0292C16.0243 13.2257 16.4988 12.1363 16.5 11V6.28571C16.5 5.14907 16.0259 4.05898 15.182 3.25526C14.3381 2.45153 13.1935 2 12 2C10.8065 2 9.66193 2.45153 8.81802 3.25526C7.97411 4.05898 7.5 5.14907 7.5 6.28571V11C7.50124 12.1363 7.97575 13.2257 8.81939 14.0292C9.66304 14.8326 10.8069 15.2845 12 15.2857ZM9 6.28571C9 5.52795 9.31607 4.80123 9.87868 4.26541C10.4413 3.72959 11.2044 3.42857 12 3.42857C12.7956 3.42857 13.5587 3.72959 14.1213 4.26541C14.6839 4.80123 15 5.52795 15 6.28571V11C15 11.7578 14.6839 12.4845 14.1213 13.0203C13.5587 13.5561 12.7956 13.8571 12 13.8571C11.2044 13.8571 10.4413 13.5561 9.87868 13.0203C9.31607 12.4845 9 11.7578 9 11C9 10.2422 9 6.28571 9 6.28571ZM12.75 19.1071V21.2857C12.75 21.4752 12.671 21.6568 12.5303 21.7908C12.3897 21.9247 12.1989 22 12 22C11.8011 22 11.6103 21.9247 11.4697 21.7908C11.329 21.6568 11.25 21.4752 11.25 21.2857V19.1071C9.40091 18.9279 7.68728 18.1021 6.44048 16.7893C5.19368 15.4766 4.50228 13.7701 4.5 12C4.5 11.8106 4.57902 11.6289 4.71967 11.4949C4.86032 11.361 5.05109 11.2857 5.25 11.2857C5.44891 11.2857 5.63968 11.361 5.78033 11.4949C5.92098 11.6289 6 11.8106 6 12C6 13.5155 6.63214 14.969 7.75736 16.0406C8.88258 17.1122 10.4087 17.7143 12 17.7143C13.5913 17.7143 15.1174 17.1122 16.2426 16.0406C17.3679 14.969 18 13.5155 18 12C18 11.8106 18.079 11.6289 18.2197 11.4949C18.3603 11.361 18.5511 11.2857 18.75 11.2857C18.9489 11.2857 19.1397 11.361 19.2803 11.4949C19.421 11.6289 19.5 11.8106 19.5 12C19.4977 13.7701 18.8063 15.4766 17.5595 16.7893C16.3127 18.1021 14.5991 18.9279 12.75 19.1071Z" fill="black" stroke="black" stroke-width="0.5"/>
</g>
</svg>
