<svg width="24" height="24" viewBox="0 0 24 24" fill="none" xmlns="http://www.w3.org/2000/svg">
<g id="play-2">
<path id="Vector" d="M6.46945 3.83352C6.28272 3.72567 6.07148 3.66958 5.85681 3.67085C5.64214 3.67212 5.43156 3.7307 5.24607 3.84075C5.06058 3.95079 4.90668 4.10846 4.79972 4.29801C4.69277 4.48755 4.6365 4.70235 4.63653 4.92096V19.0802C4.6365 19.2988 4.69277 19.5136 4.79972 19.7032C4.90668 19.8927 5.06058 20.0504 5.24607 20.1604C5.43156 20.2705 5.64214 20.3291 5.85681 20.3303C6.07148 20.3316 6.28272 20.2755 6.46945 20.1677L18.741 13.0864C18.9299 12.9774 19.087 12.8193 19.1963 12.6282C19.3056 12.4372 19.3632 12.22 19.3632 11.9989C19.3632 11.7778 19.3056 11.5607 19.1963 11.3696C19.087 11.1786 18.9299 11.0205 18.741 10.9115L6.46863 3.83269L6.46945 3.83352ZM3 4.92096C3 2.68691 5.36561 1.28198 7.27544 2.38276L19.547 9.45989C21.4838 10.5765 21.4846 13.418 19.5478 14.5346L7.27626 21.6176C5.36642 22.7175 3 21.3134 3 19.0786V4.92096Z" fill="#272727" stroke="#272727" stroke-width="0.4"/>
</g>
</svg>
