<?xml version="1.0" encoding="UTF-8"?>
<svg id="Layer_1" data-name="Layer 1" xmlns="http://www.w3.org/2000/svg" viewBox="0 0 1322.4 780.37">
  <defs>
    <style>
      .cls-1 {
        fill: #dcad68;
      }
    </style>
  </defs>
  <path class="cls-1" d="M1322.4,3.15V771.11c-1.01,.35-2.02,.69-3.02,1.02-33.32,11.01-107.51,10.41-141.47,1.6h0V88.25c0-47,38.1-85.1,85.1-85.1h59.4Z"/>
  <path class="cls-1" d="M729.62,443.31h372.08v65.95c0,36.71-29.76,66.46-66.46,66.46h-330.6c-4.67,1.18-9.09,1.37-13.14,.33-29.71-7.71-38.17-39.09-38.17-39.09,0,0-137.67-249.12-148.38-265.99-10.72-16.88-37.96-36.03-67.34-27.54-29.39,8.48-26.56,36.39-26.56,36.39l141.44,250.09s-61.61,44.51-94.41,68.75c-10.64,7.86-25.64,5.49-33.34-5.26-24.83-34.68-57.65-64.16-77.25-76.41-23.38-14.63-61.64-30.09-139.2,28.3-22.33,16.8-44.09,27.58-63.78,34.41-48.67,16.9-84.55,9.62-84.55,9.62L0,573.75V92.8C0,41.55,41.55,0,92.8,0h51.7V443.05c31.74-18.05,154.47-87.96,155.41-89.9,12.21-109.07,119.07-274.6,204.44-268.04,85.37,6.55,154.31,124,154.31,124l131.54,237.64h-63.65l3.06-3.44Z"/>
  <polygon class="cls-1" points="729.62 443.31 726.56 446.75 725.27 443.31 729.62 443.31"/>
  <path class="cls-1" d="M1101.7,645.07v97.36c0,20.96-16.99,37.95-37.95,37.95h-336.31v-97.36c0-20.96,16.99-37.95,37.95-37.95h336.31Z"/>
</svg>