<svg width="88" height="88" viewBox="0 0 88 88" fill="none" xmlns="http://www.w3.org/2000/svg">
<g clip-path="url(#clip0_849_10036)">
<path d="M51.3541 28.8598C51.2626 28.6245 51.1226 28.409 50.9422 28.2259C49.1779 26.3431 45.9328 25.0878 42.8723 25.0878C39.8119 25.0878 36.5668 26.3431 34.8024 28.2259C34.4667 28.5999 34.2981 29.084 34.3327 29.5748C34.3673 30.0655 34.6023 30.5239 34.9875 30.8519C35.3727 31.1799 35.8775 31.3514 36.3939 31.3298C36.9103 31.3083 37.3973 31.0952 37.7508 30.7364C38.7599 29.6631 40.9629 28.8535 42.8723 28.8535C44.7818 28.8535 46.9848 29.6631 47.9939 30.7364C48.1652 30.9271 48.3748 31.0834 48.6105 31.196C48.8461 31.3086 49.103 31.3753 49.3661 31.3921C49.6292 31.4089 49.8932 31.3754 50.1425 31.2938C50.3918 31.2121 50.6215 31.0839 50.818 30.9165C51.0145 30.7492 51.1739 30.5462 51.2867 30.3195C51.3996 30.0927 51.4637 29.8468 51.4753 29.5961C51.4869 29.3454 51.4457 29.0951 51.3541 28.8598Z" fill="#A29BFE"/>
<path d="M24.8658 31.196C24.6301 31.0834 24.4205 30.9271 24.2493 30.7364C23.2401 29.6631 21.0371 28.8535 19.1277 28.8535C17.2182 28.8535 15.0152 29.6631 14.0061 30.7364C13.8348 30.9271 13.6252 31.0834 13.3896 31.196C13.1539 31.3086 12.897 31.3753 12.6339 31.3921C12.3708 31.4089 12.1068 31.3754 11.8575 31.2938C11.6082 31.2121 11.3785 31.0839 11.182 30.9165C10.9855 30.7492 10.8262 30.5462 10.7133 30.3195C10.6004 30.0927 10.5363 29.8468 10.5247 29.5961C10.5131 29.3454 10.5543 29.0951 10.6459 28.8598C10.7374 28.6245 10.8774 28.409 11.0578 28.2259C12.8221 26.3431 16.0672 25.0878 19.1277 25.0878C22.1881 25.0878 25.4332 26.3431 27.1976 28.2259C27.3779 28.409 27.5179 28.6245 27.6095 28.8598C27.701 29.0951 27.7422 29.3454 27.7306 29.5961C27.719 29.8468 27.6549 30.0927 27.542 30.3195C27.4292 30.5462 27.2698 30.7492 27.0733 30.9165C26.8768 31.0839 26.6471 31.2121 26.3978 31.2938C26.1485 31.3754 25.8845 31.4089 25.6214 31.3921C25.3583 31.3753 25.1014 31.3086 24.8658 31.196Z" fill="#A29BFE"/>
<path d="M42.9438 40.2406C43.191 40.3169 43.42 40.4388 43.6177 40.5993C43.8154 40.7598 43.978 40.9558 44.0961 41.1761C44.2142 41.3964 44.2856 41.6367 44.3061 41.8832C44.3266 42.1297 44.2959 42.3777 44.2157 42.6129C44.1355 42.8482 44.0073 43.0661 43.8386 43.2542C42.2629 45.0342 40.2975 46.4651 38.0798 47.4467C35.8622 48.4282 33.4459 48.9368 31 48.9368C28.5541 48.9368 26.1379 48.4282 23.9202 47.4467C21.7025 46.4651 19.7371 45.0342 18.1614 43.2542C17.9927 43.066 17.8646 42.8481 17.7844 42.6129C17.7042 42.3777 17.6735 42.1297 17.694 41.8832C17.7146 41.6367 17.7859 41.3964 17.904 41.1761C18.0221 40.9558 18.1846 40.7599 18.3823 40.5993C18.58 40.4388 18.809 40.3169 19.0562 40.2406C19.3034 40.1643 19.564 40.1351 19.8231 40.1546C20.0822 40.1742 20.3347 40.2421 20.5662 40.3544C20.7977 40.4668 21.0037 40.6215 21.1723 40.8096C22.3762 42.1757 23.8799 43.2742 25.5778 44.0279C27.2756 44.7816 29.1264 45.1722 31 45.1722C32.8736 45.1722 34.7244 44.7816 36.4222 44.0279C38.1201 43.2742 39.6239 42.1757 40.8277 40.8096C40.9963 40.6214 41.2023 40.4668 41.4338 40.3544C41.6653 40.242 41.9178 40.1741 42.1769 40.1545C42.436 40.135 42.6966 40.1642 42.9438 40.2406Z" fill="#A29BFE"/>
<path fill-rule="evenodd" clip-rule="evenodd" d="M62 21.8776V4.3765C61.9971 3.66395 61.8122 2.96276 61.4611 2.33338C61.1099 1.70401 60.6032 1.16535 59.9846 0.763841C59.3659 0.362336 58.6539 0.110041 57.91 0.0287117C57.166 -0.0526179 56.4125 0.0394584 55.7143 0.297002C51.0346 2.01039 41.5994 4.90998 31 4.90998C20.4006 4.90998 10.9654 2.01039 6.28575 0.297002C5.58753 0.0394584 4.83396 -0.0526179 4.09001 0.0287117C3.34607 0.110041 2.63407 0.362336 2.01543 0.763841C1.39678 1.16535 0.890057 1.70401 0.538944 2.33338C0.187831 2.96276 0.00286179 3.66395 0 4.3765V21.8807C0 33.0052 3.14287 43.4895 8.84819 51.3975C14.7085 59.5251 22.5772 64 31 64C39.4228 64 47.2915 59.5251 53.1518 51.3943C58.8571 43.4864 62 33.0021 62 21.8776ZM57.9672 4.08209C58.0172 4.17289 58.0431 4.27398 58.0426 4.3765V21.8807C58.0426 43.0282 45.9097 60.2343 31 60.2343C16.0903 60.2343 3.95745 43.0282 3.95745 21.8744V4.3765C3.95745 4.27451 3.98359 4.17406 4.03358 4.08384C4.08357 3.99362 4.15592 3.91635 4.24436 3.85872C4.33282 3.80148 4.43457 3.76558 4.54086 3.7541C4.64715 3.74262 4.75478 3.75591 4.85447 3.79282C9.79138 5.63174 19.7543 8.67567 31 8.67567C42.2457 8.67567 52.2086 5.63174 57.1455 3.78968C57.2448 3.75082 57.3528 3.73648 57.4595 3.748C57.5662 3.75952 57.668 3.79653 57.7556 3.85558C57.8445 3.91351 57.9172 3.99128 57.9672 4.08209Z" fill="#A29BFE"/>
<path d="M51.3541 28.8598C51.2626 28.6245 51.1226 28.409 50.9422 28.2259C49.1779 26.3431 45.9328 25.0878 42.8723 25.0878C39.8119 25.0878 36.5668 26.3431 34.8024 28.2259C34.4667 28.5999 34.2981 29.084 34.3327 29.5748C34.3673 30.0655 34.6023 30.5239 34.9875 30.8519C35.3727 31.1799 35.8775 31.3514 36.3939 31.3298C36.9103 31.3083 37.3973 31.0952 37.7508 30.7364C38.7599 29.6631 40.9629 28.8535 42.8723 28.8535C44.7818 28.8535 46.9848 29.6631 47.9939 30.7364C48.1652 30.9271 48.3748 31.0834 48.6105 31.196C48.8461 31.3086 49.103 31.3753 49.3661 31.3921C49.6292 31.4089 49.8932 31.3754 50.1425 31.2938C50.3918 31.2121 50.6215 31.0839 50.818 30.9165C51.0145 30.7492 51.1739 30.5462 51.2867 30.3195C51.3996 30.0927 51.4637 29.8468 51.4753 29.5961C51.4869 29.3454 51.4457 29.0951 51.3541 28.8598Z" stroke="#A29BFE" stroke-width="1.5"/>
<path d="M24.8658 31.196C24.6301 31.0834 24.4205 30.9271 24.2493 30.7364C23.2401 29.6631 21.0371 28.8535 19.1277 28.8535C17.2182 28.8535 15.0152 29.6631 14.0061 30.7364C13.8348 30.9271 13.6252 31.0834 13.3896 31.196C13.1539 31.3086 12.897 31.3753 12.6339 31.3921C12.3708 31.4089 12.1068 31.3754 11.8575 31.2938C11.6082 31.2121 11.3785 31.0839 11.182 30.9165C10.9855 30.7492 10.8262 30.5462 10.7133 30.3195C10.6004 30.0927 10.5363 29.8468 10.5247 29.5961C10.5131 29.3454 10.5543 29.0951 10.6459 28.8598C10.7374 28.6245 10.8774 28.409 11.0578 28.2259C12.8221 26.3431 16.0672 25.0878 19.1277 25.0878C22.1881 25.0878 25.4332 26.3431 27.1976 28.2259C27.3779 28.409 27.5179 28.6245 27.6095 28.8598C27.701 29.0951 27.7422 29.3454 27.7306 29.5961C27.719 29.8468 27.6549 30.0927 27.542 30.3195C27.4292 30.5462 27.2698 30.7492 27.0733 30.9165C26.8768 31.0839 26.6471 31.2121 26.3978 31.2938C26.1485 31.3754 25.8845 31.4089 25.6214 31.3921C25.3583 31.3753 25.1014 31.3086 24.8658 31.196Z" stroke="#A29BFE" stroke-width="1.5"/>
<path d="M42.9438 40.2406C43.191 40.3169 43.42 40.4388 43.6177 40.5993C43.8154 40.7598 43.978 40.9558 44.0961 41.1761C44.2142 41.3964 44.2856 41.6367 44.3061 41.8832C44.3266 42.1297 44.2959 42.3777 44.2157 42.6129C44.1355 42.8482 44.0073 43.0661 43.8386 43.2542C42.2629 45.0342 40.2975 46.4651 38.0798 47.4467C35.8622 48.4282 33.4459 48.9368 31 48.9368C28.5541 48.9368 26.1379 48.4282 23.9202 47.4467C21.7025 46.4651 19.7371 45.0342 18.1614 43.2542C17.9927 43.066 17.8646 42.8481 17.7844 42.6129C17.7042 42.3777 17.6735 42.1297 17.694 41.8832C17.7146 41.6367 17.7859 41.3964 17.904 41.1761C18.0221 40.9558 18.1846 40.7599 18.3823 40.5993C18.58 40.4388 18.809 40.3169 19.0562 40.2406C19.3034 40.1643 19.564 40.1351 19.8231 40.1546C20.0822 40.1742 20.3347 40.2421 20.5662 40.3544C20.7977 40.4668 21.0037 40.6215 21.1723 40.8096C22.3762 42.1757 23.8799 43.2742 25.5778 44.0279C27.2756 44.7816 29.1264 45.1722 31 45.1722C32.8736 45.1722 34.7244 44.7816 36.4222 44.0279C38.1201 43.2742 39.6239 42.1757 40.8277 40.8096C40.9963 40.6214 41.2023 40.4668 41.4338 40.3544C41.6653 40.242 41.9178 40.1741 42.1769 40.1545C42.436 40.135 42.6966 40.1642 42.9438 40.2406Z" stroke="#A29BFE" stroke-width="1.5"/>
<path fill-rule="evenodd" clip-rule="evenodd" d="M62 21.8776V4.3765C61.9971 3.66395 61.8122 2.96276 61.4611 2.33338C61.1099 1.70401 60.6032 1.16535 59.9846 0.763841C59.3659 0.362336 58.6539 0.110041 57.91 0.0287117C57.166 -0.0526179 56.4125 0.0394584 55.7143 0.297002C51.0346 2.01039 41.5994 4.90998 31 4.90998C20.4006 4.90998 10.9654 2.01039 6.28575 0.297002C5.58753 0.0394584 4.83396 -0.0526179 4.09001 0.0287117C3.34607 0.110041 2.63407 0.362336 2.01543 0.763841C1.39678 1.16535 0.890057 1.70401 0.538944 2.33338C0.187831 2.96276 0.00286179 3.66395 0 4.3765V21.8807C0 33.0052 3.14287 43.4895 8.84819 51.3975C14.7085 59.5251 22.5772 64 31 64C39.4228 64 47.2915 59.5251 53.1518 51.3943C58.8571 43.4864 62 33.0021 62 21.8776ZM57.9672 4.08209C58.0172 4.17289 58.0431 4.27398 58.0426 4.3765V21.8807C58.0426 43.0282 45.9097 60.2343 31 60.2343C16.0903 60.2343 3.95745 43.0282 3.95745 21.8744V4.3765C3.95745 4.27451 3.98359 4.17406 4.03358 4.08384C4.08357 3.99362 4.15592 3.91635 4.24436 3.85872C4.33282 3.80148 4.43457 3.76558 4.54086 3.7541C4.64715 3.74262 4.75478 3.75591 4.85447 3.79282C9.79138 5.63174 19.7543 8.67567 31 8.67567C42.2457 8.67567 52.2086 5.63174 57.1455 3.78968C57.2448 3.75082 57.3528 3.73648 57.4595 3.748C57.5662 3.75952 57.668 3.79653 57.7556 3.85558C57.8445 3.91351 57.9172 3.99128 57.9672 4.08209Z" stroke="#A29BFE" stroke-width="1.5"/>
<path d="M83.625 69.8746C82.375 76.1246 77.6625 82.0096 71.05 83.3246C67.825 83.9669 64.4795 83.5753 61.49 82.2056C58.5005 80.8359 56.0193 78.558 54.3997 75.6961C52.7802 72.8342 52.1048 69.5343 52.4698 66.2663C52.8348 62.9983 54.2215 59.9287 56.4325 57.4946C60.9675 52.4996 68.625 51.1246 74.875 53.6246" stroke="#A29BFE" stroke-width="4.5" stroke-linecap="round" stroke-linejoin="round"/>
<path d="M62.375 67.375L68.625 73.625L83.625 57.375" stroke="#A29BFE" stroke-width="4.5" stroke-linecap="round" stroke-linejoin="round"/>
</g>
<defs>
<clipPath id="clip0_849_10036">
<rect width="88" height="88" fill="white"/>
</clipPath>
</defs>
</svg>
