<svg width="24" height="24" viewBox="0 0 24 24" fill="none" xmlns="http://www.w3.org/2000/svg">
<path fill-rule="evenodd" clip-rule="evenodd" d="M0 1.58052C0 0.754203 0.454903 -0.650528 2.27451 0.341047L4.96258 2.25188C7.06478 0.668118 12.7373 -1.6008 18.6097 1.99366C20.6429 3.25034 24.5544 7.2614 23.9341 13.2522C23.6756 16.282 21.1943 22.6618 13.3369 23.9426C9.82177 24.3041 3.24635 23.1266 0.516935 15.5245C0.344623 14.8704 0 13.4278 0 12.8907V1.58052ZM9.04939 17.5192C9.49429 17.9531 10.085 18.1461 10.6596 18.1001C11.2304 18.1398 11.8149 17.944 12.2547 17.5114L19.1832 10.6959C19.9969 9.89544 20.0071 8.5875 19.2059 7.77454C18.4046 6.96157 17.0955 6.95143 16.2817 7.75189L10.6425 13.2991L7.59592 10.3279C6.77875 9.53094 5.46962 9.5467 4.67191 10.3631C3.87419 11.1795 3.88996 12.4874 4.70714 13.2843L9.04939 17.5192Z" fill="white"/>
</svg>
