<svg width="24" height="24" viewBox="0 0 24 24" fill="none" xmlns="http://www.w3.org/2000/svg">
<path d="M6.96 0H17.04C18.8855 0.00132436 20.655 0.735033 21.96 2.04C23.265 3.34497 23.9987 5.1145 24 6.96V17.04C24 17.954 23.82 18.8591 23.4702 19.7035C23.1204 20.5479 22.6078 21.3152 21.9615 21.9615C21.3152 22.6078 20.5479 23.1204 19.7035 23.4702C18.8591 23.82 17.954 24 17.04 24H6.96C5.1145 23.9987 3.34497 23.265 2.04 21.96C0.735033 20.655 0.00132436 18.8855 0 17.04V6.96C0 5.11409 0.733284 3.34379 2.03854 2.03854C3.34379 0.733284 5.11409 0 6.96 0ZM6.72 2.4C5.57427 2.4 4.47546 2.85514 3.6653 3.6653C2.85514 4.47546 2.4 5.57427 2.4 6.72V17.28C2.39961 17.8474 2.51108 18.4094 2.72804 18.9337C2.945 19.458 3.26319 19.9344 3.66442 20.3356C4.06565 20.7368 4.54204 21.055 5.06634 21.272C5.59065 21.4889 6.15258 21.6004 6.72 21.6H17.28C18.4257 21.6 19.5245 21.1449 20.3347 20.3347C21.1449 19.5245 21.6 18.4257 21.6 17.28V6.72C21.6004 6.15258 21.4889 5.59065 21.272 5.06634C21.055 4.54204 20.7368 4.06565 20.3356 3.66442C19.9344 3.26319 19.458 2.945 18.9337 2.72804C18.4094 2.51108 17.8474 2.39961 17.28 2.4H6.72ZM18.3 4.2C18.5967 4.2 18.8867 4.28797 19.1334 4.4528C19.38 4.61762 19.5723 4.85189 19.6858 5.12597C19.7994 5.40006 19.8291 5.70166 19.7712 5.99264C19.7133 6.28361 19.5704 6.55088 19.3607 6.76066C19.1509 6.97044 18.8836 7.1133 18.5926 7.17118C18.3017 7.22906 18.0001 7.19935 17.726 7.08582C17.4519 6.97229 17.2176 6.78003 17.0528 6.53336C16.888 6.28668 16.8 5.99667 16.8 5.7C16.8 5.30218 16.958 4.92064 17.2393 4.63934C17.5206 4.35804 17.9022 4.2 18.3 4.2ZM12 6C13.1867 6 14.3467 6.35189 15.3334 7.01118C16.3201 7.67047 17.0892 8.60754 17.5433 9.7039C17.9974 10.8003 18.1162 12.0067 17.8847 13.1705C17.6532 14.3344 17.0818 15.4035 16.2426 16.2426C15.4035 17.0818 14.3344 17.6532 13.1705 17.8847C12.0067 18.1162 10.8003 17.9974 9.7039 17.5433C8.60754 17.0892 7.67047 16.3201 7.01118 15.3334C6.35189 14.3467 6 13.1867 6 12C6 10.4087 6.63214 8.88258 7.75736 7.75736C8.88258 6.63214 10.4087 6 12 6ZM12 8.4C11.288 8.4 10.592 8.61114 9.99995 9.00671C9.40793 9.40228 8.94651 9.96453 8.67403 10.6223C8.40156 11.2802 8.33027 12.004 8.46917 12.7023C8.60808 13.4007 8.95095 14.0421 9.45442 14.5456C9.95788 15.0491 10.5993 15.3919 11.2977 15.5308C11.996 15.6697 12.7198 15.5984 13.3777 15.326C14.0355 15.0535 14.5977 14.5921 14.9933 14.0001C15.3889 13.408 15.6 12.712 15.6 12C15.6 11.0452 15.2207 10.1295 14.5456 9.45442C13.8705 8.77928 12.9548 8.4 12 8.4Z" fill="white"/>
</svg>
