<svg width="22" height="24" viewBox="0 0 22 24" fill="none" xmlns="http://www.w3.org/2000/svg">
<g clip-path="url(#clip0_86_485)">
<path d="M9.08875 0.661786C9.68041 0.334325 10.3174 0.0346361 11.0048 0.00976562C11.0089 1.41536 11.0052 2.82096 11.0064 4.22655C11.0002 4.71526 11.0193 5.20479 10.996 5.69267L10.9894 5.69598C10.26 5.26448 9.50649 4.8736 8.76796 4.45743C7.69074 3.86096 6.61061 3.26904 5.53464 2.67008C6.71671 1.9965 7.90335 1.32997 9.08875 0.661786Z" fill="white"/>
<path d="M11.0048 0.00976562C11.8099 0.0213718 12.5276 0.440854 13.2133 0.818056C14.2968 1.43443 15.3902 2.03629 16.4654 2.6651C14.9438 3.49826 13.4272 4.34137 11.9077 5.17868C11.6052 5.35194 11.2902 5.50531 10.9965 5.69267H10.996C11.0193 5.20479 11.0002 4.71526 11.0064 4.22655C11.0052 2.82096 11.0089 1.41536 11.0048 0.00976562Z" fill="white"/>
<path d="M16.4654 2.66469L16.4812 2.65723L16.4932 2.67173C16.4803 4.73764 16.4957 6.80355 16.4857 8.86904L16.4658 8.88148C14.6467 7.81122 12.8126 6.76666 10.9965 5.69225C11.2902 5.50489 11.6052 5.35153 11.9077 5.17826C13.4272 4.34096 14.9438 3.49785 16.4654 2.66469Z" fill="white"/>
<path d="M1.82366 4.79268C3.04443 4.08097 4.27393 3.38336 5.50218 2.68408C5.5051 4.74957 5.49844 6.81465 5.50635 8.87973C4.94381 8.60367 4.40832 8.27496 3.85453 7.98273C2.702 7.339 1.53781 6.71558 0.391525 6.06149C0.711487 5.4932 1.2657 5.10688 1.82366 4.79268Z" fill="white"/>
<path d="M5.50218 2.68401L5.53464 2.66992C6.61061 3.26889 7.69074 3.8608 8.76796 4.45728C9.50649 4.87345 10.26 5.26433 10.9894 5.69583C9.18445 6.74412 7.38118 7.79573 5.57458 8.84111C5.55752 8.85065 5.5234 8.86972 5.50634 8.87966C5.49844 6.81459 5.50509 4.74951 5.50218 2.68401Z" fill="white"/>
<path d="M16.4932 2.67188C17.6899 3.34835 18.8815 4.03395 20.0694 4.72535C20.664 5.06359 21.2993 5.4354 21.6247 6.06296C19.9234 7.00763 18.2166 7.94234 16.5157 8.88783L16.4857 8.86918C16.4957 6.80369 16.4803 4.73778 16.4932 2.67188Z" fill="white"/>
<path d="M0.0873766 7.01116C0.147708 6.68453 0.222185 6.35126 0.391528 6.06152C1.53782 6.71562 2.702 7.33904 3.85453 7.98277C4.40832 8.275 4.94381 8.6037 5.50635 8.87976L5.50177 8.88225C3.66563 9.94297 1.83323 11.0099 0.00125122 12.0781C0.00874058 11.0228 0.00208154 9.96702 0.004578 8.91168C0.00707445 8.27748 -0.0141458 7.63955 0.0873766 7.01116Z" fill="white"/>
<path d="M16.5157 8.88786C18.2166 7.94237 19.9234 7.00765 21.6247 6.06299C21.8773 6.52972 21.9534 7.06527 21.9958 7.58506C21.9992 9.08599 21.9958 10.5873 21.9979 12.0887L21.9692 12.0928C21.8639 11.9743 21.7142 11.9154 21.5818 11.8354C19.8938 10.851 18.2021 9.87356 16.5157 8.88786Z" fill="white"/>
<path d="M16.4857 8.86914L16.5157 8.88779C18.2021 9.87349 19.8938 10.8509 21.5818 11.8354C21.7142 11.9154 21.8639 11.9742 21.9692 12.0928C20.1381 13.0917 18.3198 14.1152 16.4866 15.11C16.4866 13.0296 16.4882 10.9491 16.4857 8.86914Z" fill="white"/>
<path d="M0.00125122 12.0777C1.83323 11.0095 3.66563 9.94256 5.50177 8.88184C5.50177 10.9552 5.50593 13.029 5.49969 15.1028C4.40499 14.527 3.33318 13.9069 2.24515 13.3179C1.50245 12.9079 0.760171 12.4972 0.0174762 12.0868L0.00125122 12.0777Z" fill="white"/>
<path d="M0.0174717 12.0869C0.760167 12.4973 1.50245 12.9081 2.24514 13.318C3.33318 13.907 4.40499 14.5271 5.49969 15.1029L5.50967 15.1078C3.81999 16.0828 2.13738 17.0689 0.448942 18.0455C0.136885 17.5497 0.0615769 16.9487 0.0212175 16.3762C-0.014565 15.2579 0.0128946 14.1371 0.00415702 13.0175C0.0124785 12.7078 -0.0129018 12.3928 0.0174717 12.0869Z" fill="white"/>
<path d="M16.4866 15.1102C18.3198 14.1154 20.1381 13.092 21.9692 12.093L21.9979 12.0889C21.9963 13.3651 21.9975 14.6414 21.9971 15.9177C22.0079 16.6451 21.9476 17.4178 21.5598 18.0549C20.1069 17.2172 18.6602 16.3691 17.2089 15.5285C16.9647 15.3917 16.7292 15.2395 16.4791 15.1135L16.4866 15.1102Z" fill="white"/>
<path d="M0.448944 18.0455C2.13738 17.0689 3.81999 16.0828 5.50967 15.1079C5.49469 17.1809 5.5051 19.2546 5.50426 21.328C4.54729 20.7804 3.58532 20.242 2.62876 19.694C2.23391 19.4669 1.8324 19.2493 1.45127 18.9989C1.06723 18.7411 0.694845 18.4426 0.448944 18.0455Z" fill="white"/>
<path d="M5.50968 15.1079C7.3375 16.1181 9.16491 17.129 10.9948 18.1359L11.0048 18.1413C9.1674 19.1879 7.34707 20.2665 5.51467 21.3222L5.50427 21.328C5.5051 19.2546 5.4947 17.1809 5.50968 15.1079Z" fill="white"/>
<path d="M10.9948 18.1359C12.8247 17.1319 14.6475 16.1139 16.4791 15.1133C16.4982 17.1875 16.4795 19.2621 16.4887 21.3363L16.4762 21.3288C14.6575 20.2577 12.8255 19.2094 11.0048 18.1413L10.9948 18.1359Z" fill="white"/>
<path d="M16.4791 15.1133C16.7292 15.2393 16.9647 15.3914 17.2089 15.5282C18.6602 16.3688 20.1069 17.2169 21.5598 18.0546C21.3397 18.4488 20.9648 18.7236 20.6007 18.9769C20.0386 19.3433 19.4453 19.6584 18.8653 19.9945C18.0735 20.4426 17.2821 20.8915 16.4887 21.3363C16.4795 19.2621 16.4982 17.1875 16.4791 15.1133Z" fill="white"/>
<path d="M5.51466 21.322C7.34706 20.2663 9.16739 19.1877 11.0048 18.1411C11.0069 20.0918 11.0085 22.042 11.0035 23.9923C10.5384 23.9778 10.0744 23.851 9.66585 23.6296C8.28157 22.8615 6.8873 22.1084 5.51466 21.322Z" fill="white"/>
<path d="M11.0048 18.1411C12.8255 19.2093 14.6575 20.2576 16.4762 21.3287C15.8683 21.6831 15.2446 22.0126 14.6301 22.3567C13.7983 22.8143 12.9699 23.2769 12.1365 23.7308C11.7833 23.8937 11.3947 23.9981 11.0035 23.9923C11.0085 22.042 11.0069 20.0918 11.0048 18.1411Z" fill="white"/>
</g>
<defs>
<clipPath id="clip0_86_485">
<rect width="22" height="24" fill="white"/>
</clipPath>
</defs>
</svg>
